<?xml version="1.0" standalone="no"?>
<!DOCTYPE svg PUBLIC "-//W3C//DTD SVG 20010904//EN"
 "http://www.w3.org/TR/2001/REC-SVG-20010904/DTD/svg10.dtd">
<svg version="1.0" xmlns="http://www.w3.org/2000/svg"
 width="1280.000000pt" height="1118.000000pt" viewBox="0 0 1280.000000 1118.000000"
 preserveAspectRatio="xMidYMid meet">
<g transform="translate(0.000000,1118.000000) scale(0.100000,-0.100000)"
fill="#000000" stroke="none">
<path d="M12389 11176 c-2 -2 -44 -11 -94 -20 -76 -13 -113 -27 -250 -96 -177
-89 -248 -110 -380 -110 -99 0 -130 8 -280 75 -144 64 -217 80 -328 72 -176
-13 -314 -67 -538 -210 -74 -47 -166 -100 -203 -118 -141 -66 -270 -50 -643
78 -682 234 -892 288 -1208 308 -202 13 -337 -21 -556 -141 -165 -91 -234
-114 -335 -114 -86 0 -91 2 -273 114 -144 87 -239 130 -333 147 -59 11 -76 10
-128 -4 -79 -22 -123 -51 -191 -124 -131 -142 -195 -374 -155 -557 26 -115 94
-242 169 -318 130 -130 288 -195 582 -238 285 -43 436 -15 670 122 253 149
386 198 742 269 196 39 233 53 233 89 0 54 -92 75 -300 67 -238 -9 -373 -36
-670 -132 -254 -82 -346 -99 -530 -99 -126 1 -169 5 -231 22 -167 45 -296 136
-334 234 -37 98 -3 239 75 313 29 28 37 30 104 30 63 0 81 -5 147 -37 40 -20
119 -69 174 -109 129 -92 165 -109 240 -109 118 0 187 23 420 139 285 143 297
146 505 145 404 -1 934 -140 1109 -291 144 -122 70 -241 -248 -402 -164 -82
-296 -137 -699 -285 -423 -156 -466 -173 -655 -261 -92 -42 -177 -75 -189 -73
-14 2 -25 15 -35 43 -27 79 -105 135 -187 135 -86 0 -159 -47 -204 -134 -23
-43 -27 -64 -27 -131 0 -70 4 -86 28 -128 34 -57 92 -102 160 -122 115 -34
197 -13 427 109 273 145 313 162 760 318 810 283 1007 381 1426 710 312 245
532 368 790 443 135 39 199 36 313 -15 123 -56 184 -64 312 -45 140 21 221 47
384 122 256 119 400 153 642 153 151 0 203 12 203 46 0 20 -34 50 -78 70 -69
31 -314 68 -333 50z"/>
<path d="M5390 11160 c-214 -28 -447 -141 -596 -288 -161 -160 -262 -361 -340
-677 -58 -237 -62 -425 -13 -605 68 -251 264 -477 466 -540 35 -11 122 -24
195 -30 252 -20 343 -30 389 -44 106 -32 206 -101 248 -169 33 -55 50 -121 65
-263 20 -175 29 -206 73 -255 51 -56 106 -82 173 -82 129 0 224 105 224 248 0
82 -20 119 -126 228 -123 126 -131 145 -126 271 5 117 27 184 86 261 50 66
142 140 222 178 55 27 75 31 145 31 117 0 230 -41 338 -123 93 -70 105 -119
62 -261 -31 -103 -31 -138 -2 -180 43 -64 68 -75 170 -75 105 0 151 18 205 79
47 53 56 102 42 214 -15 121 -32 178 -83 277 -49 97 -168 220 -267 278 -128
74 -301 113 -460 104 -120 -7 -203 -28 -310 -79 -77 -37 -98 -54 -222 -178
-156 -157 -137 -148 -367 -175 -239 -28 -413 -15 -523 41 -30 15 -84 58 -123
98 -204 207 -226 457 -76 831 59 147 124 247 226 350 94 93 159 138 267 183
52 22 79 27 153 27 77 0 98 -4 147 -27 112 -52 199 -175 200 -283 1 -82 -29
-155 -140 -344 -71 -122 -92 -178 -92 -249 0 -101 51 -162 122 -147 46 11 117
88 248 272 190 267 237 379 228 547 -4 75 -9 95 -47 171 -99 199 -310 343
-560 380 -103 16 -134 17 -221 5z"/>
<path d="M285 11146 c-70 -22 -120 -53 -164 -101 -53 -58 -82 -121 -88 -194
-7 -95 27 -131 147 -156 108 -23 120 -33 120 -103 0 -51 -7 -72 -55 -164 -70
-136 -81 -178 -65 -253 29 -141 128 -311 259 -448 l79 -82 117 -1 c90 0 119
-4 126 -15 14 -22 10 -168 -5 -226 -20 -73 -51 -119 -99 -147 -101 -58 -285
-87 -306 -48 -5 9 -15 46 -22 81 -15 79 -56 142 -129 198 -102 78 -134 67
-166 -58 -22 -89 -25 -281 -5 -349 35 -120 234 -230 415 -230 211 0 690 319
794 529 69 139 31 277 -139 501 -96 128 -229 270 -258 276 -14 3 -31 7 -38 9
-7 2 -52 -2 -100 -10 -135 -22 -167 -20 -193 13 -22 26 -22 33 -17 172 9 198
34 285 100 334 25 18 42 21 130 21 85 -1 115 -5 182 -29 159 -55 182 -92 220
-350 19 -129 32 -166 129 -364 139 -282 197 -308 431 -198 127 61 225 137 446
352 235 227 304 285 389 327 61 30 71 32 170 32 90 -1 114 -5 168 -27 277
-115 449 -417 391 -690 -27 -124 -122 -264 -214 -314 -47 -25 -52 -18 -101
125 -50 149 -97 226 -160 270 -47 32 -52 33 -124 29 -92 -5 -177 -46 -255
-123 -73 -72 -90 -112 -90 -215 0 -80 2 -89 40 -159 145 -268 451 -387 694
-270 77 38 227 182 289 279 98 151 137 311 129 525 -7 207 -51 341 -170 513
-146 211 -375 323 -667 324 -162 1 -203 -16 -422 -172 -38 -27 -60 -35 -107
-38 -75 -5 -80 5 -47 119 55 195 58 258 14 346 -30 60 -98 129 -151 153 -58
27 -148 26 -204 -1 -102 -49 -150 -153 -140 -303 9 -146 38 -210 146 -328 75
-82 81 -105 52 -218 -26 -105 -67 -179 -113 -204 -80 -44 -127 5 -273 279
-196 371 -318 529 -456 595 -88 41 -132 40 -195 -6 -71 -51 -90 -57 -128 -39
-41 20 -54 45 -59 117 -4 64 -22 92 -74 114 -40 17 -124 17 -178 0z"/>
<path d="M3378 11147 c-101 -29 -132 -68 -126 -161 5 -88 44 -143 199 -287
237 -219 304 -292 346 -376 37 -76 38 -79 38 -192 0 -134 -19 -221 -92 -416
-74 -196 -116 -277 -262 -499 -214 -325 -254 -418 -320 -744 -47 -232 -62
-369 -68 -627 -8 -359 1 -410 147 -775 104 -261 130 -347 137 -450 7 -105 -9
-171 -76 -328 -87 -199 -233 -425 -415 -641 -173 -206 -481 -488 -598 -547
-116 -59 -232 -85 -378 -85 -214 -1 -317 50 -420 208 -117 178 -196 454 -221
771 -10 127 -9 160 5 240 37 213 152 429 257 482 126 65 464 -56 543 -193 37
-66 46 -126 51 -365 2 -123 7 -240 10 -260 31 -184 143 -307 280 -306 113 1
209 64 257 169 20 44 23 64 22 175 -3 339 -135 689 -343 912 -132 142 -397
230 -691 232 -198 1 -286 -26 -386 -116 -141 -130 -252 -386 -294 -678 -15
-107 -13 -393 5 -541 56 -479 231 -891 436 -1028 200 -134 589 -134 936 1 246
95 389 231 693 663 215 305 279 375 842 920 l216 210 145 220 c271 414 315
452 732 640 238 108 314 154 415 255 142 141 204 299 205 521 l0 126 -44 88
c-80 161 -218 271 -401 321 -45 13 -103 18 -186 19 l-120 0 -86 -42 c-157 -78
-288 -227 -304 -346 -17 -124 87 -236 209 -224 57 5 96 37 159 132 93 138 151
170 225 125 59 -36 84 -124 63 -226 -33 -157 -111 -238 -455 -469 -314 -210
-354 -248 -582 -550 -162 -215 -246 -305 -286 -305 -35 0 -70 31 -115 103
-101 160 -196 440 -221 647 -34 284 -15 632 49 919 50 224 92 308 271 536 180
231 199 263 296 518 96 253 134 410 140 577 10 252 -39 358 -298 650 -119 135
-153 184 -174 256 -18 63 -62 103 -137 128 -71 23 -174 29 -230 13z"/>
<path d="M1855 9094 c-16 -2 -70 -9 -120 -15 -142 -17 -421 -75 -525 -110
-152 -50 -290 -127 -471 -265 -90 -68 -238 -178 -329 -243 -234 -168 -266
-203 -306 -336 -26 -85 -26 -309 -1 -382 25 -73 79 -151 186 -273 106 -121
160 -206 193 -305 19 -60 23 -91 23 -210 0 -248 -38 -355 -251 -711 -172 -287
-200 -359 -233 -595 -16 -119 -17 -142 -4 -214 25 -146 68 -202 215 -277 80
-41 87 -43 173 -43 77 0 98 4 146 26 111 53 189 154 189 247 0 80 -38 119
-196 201 -135 71 -184 143 -184 270 0 138 42 228 197 427 136 173 161 211 207
303 60 119 79 204 80 366 2 220 -23 288 -201 556 -132 199 -155 252 -161 370
-8 164 29 299 99 367 19 18 113 79 209 134 96 56 224 129 284 164 280 161 516
221 828 212 174 -6 265 -28 373 -93 117 -70 272 -248 329 -377 67 -153 59
-266 -31 -447 -58 -116 -134 -199 -220 -238 -83 -39 -222 -44 -306 -13 -32 12
-74 36 -93 53 -67 58 -109 181 -102 297 l3 55 59 12 c106 21 126 43 126 142 0
98 -55 144 -170 144 -77 0 -123 -18 -180 -69 -84 -76 -120 -200 -100 -347 18
-132 74 -336 113 -414 50 -98 118 -163 220 -212 226 -107 366 -108 527 -2 78
51 253 222 323 316 74 99 139 234 164 340 23 104 23 316 -2 429 -49 231 -155
390 -363 546 -127 95 -257 163 -366 190 -76 19 -284 33 -351 24z"/>
<path d="M337 4980 c-142 -36 -248 -156 -278 -316 -15 -80 -5 -233 22 -319 47
-153 136 -284 256 -374 86 -65 239 -140 368 -181 126 -40 229 -40 310 0 58 28
191 159 212 208 29 69 -15 150 -94 171 -77 21 -122 -4 -211 -117 -43 -55 -69
-60 -156 -32 -129 40 -223 97 -317 190 -96 95 -129 158 -150 289 -10 62 -10
73 7 108 26 53 73 76 142 69 66 -6 108 -26 263 -127 242 -156 386 -210 624
-233 89 -8 155 -20 178 -31 50 -23 94 -75 108 -127 34 -125 -41 -380 -183
-626 -167 -289 -342 -433 -567 -463 -62 -8 -102 -7 -202 6 -280 38 -298 35
-427 -65 -154 -118 -192 -182 -223 -364 -24 -141 -24 -190 1 -304 28 -128 42
-165 130 -354 122 -258 134 -302 134 -483 1 -185 -11 -219 -119 -354 -41 -52
-84 -108 -94 -125 -48 -78 -66 -234 -38 -327 8 -25 39 -82 70 -126 71 -104 85
-161 69 -276 -6 -45 -22 -117 -36 -161 -32 -97 -32 -109 -2 -126 22 -11 27
-10 50 16 82 94 160 358 141 479 -3 25 -27 84 -52 132 -42 80 -45 90 -40 143
9 98 49 155 172 238 107 73 152 123 180 202 58 164 29 336 -130 775 -148 406
-158 445 -143 562 14 120 45 178 122 234 48 36 86 37 222 7 131 -28 313 -30
399 -4 181 55 328 175 483 392 178 252 308 536 347 762 38 218 0 385 -116 508
-80 84 -117 95 -354 105 -122 5 -221 14 -253 23 -81 22 -188 77 -278 142 -45
33 -127 92 -181 131 -55 40 -126 84 -157 98 -65 29 -152 39 -209 25z"/>
</g>
</svg>
