<?xml version="1.0" encoding="utf-8"?>
<!-- Generator: Adobe Illustrator 27.5.0, SVG Export Plug-In . SVG Version: 6.00 Build 0)  -->
<svg version="1.1" xmlns="http://www.w3.org/2000/svg" xmlns:xlink="http://www.w3.org/1999/xlink" x="0px" y="0px"
	 viewBox="0 0 500 500" style="enable-background:new 0 0 500 500;" xml:space="preserve">
<g id="BACKGROUND">
	<rect style="fill:#FFFFFF;" width="500" height="500"/>
</g>
<g id="OBJECTS">
	<path id="path929" style="fill:#3B5A73;" d="M6.027,497.359c-1.252-4.802-4.028-16.72-5.034-21.615L0,470.913l0.021-9.329
		l0.021-9.329l2.025,9.888c2.301,11.233,4.009,18.973,6.618,29.991c0.997,4.209,1.812,7.697,1.812,7.751s-0.852,0.099-1.893,0.099
		H6.712L6.027,497.359z M15.527,499.556c-4.582-14.93-8.995-77.793-7.477-106.498c0.124-2.346,0.196-4.294,0.16-4.331
		c-0.056-0.056-2.137,7.218-7.209,25.197l-0.964,3.418l-0.018-10.295L0,396.752l1.492-4.231c4.445-12.606,8.095-19.522,9.541-18.076
		c0.351,0.351,0.319,2.358-0.06,3.756c-0.743,2.744,0.863,37.884,2.828,61.883c0.332,4.048,0.603,7.591,0.603,7.873
		c0,0.282,0.11,0.513,0.244,0.513c0.143,0,0.244-0.834,0.244-2.014c0.002-9.78,3.44-36.356,6.827-52.761l0.497-2.408l-0.86-2.296
		c-4.121-11.003-6.891-42.54-5.519-62.835c1.476-21.836,4.941-42.214,9.591-56.396c3.126-9.534,6.499-16.883,7.913-17.238
		c0.315-0.079,0.701-0.298,0.858-0.486c1.167-1.406,2.062,0.77,1.84,4.477c-0.567,9.478-0.527,10.48,0.963,23.99
		c0.907,8.226,1.204,10.111,3.037,19.287c0.925,4.633,2.205,11.581,2.843,15.441c0.639,3.86,1.239,6.936,1.334,6.836
		c0.095-0.1,1.235-2.49,2.532-5.31c14.69-31.922,36.178-63.414,62.636-91.796c13.317-14.286,29.249-27.71,32.887-27.71
		c0.792,0,1.161,0.721,0.559,1.092c-0.129,0.08-0.846,1.423-1.595,2.985c-2.977,6.215-7.478,13.798-17.581,29.614
		c-33.735,52.813-47.804,82.933-60.668,129.883c-6.064,22.133-6.302,23.808-4.284,30.113c1.903,5.946,3.294,10.626,7.339,24.696
		c7.841,27.276,10.73,36.841,10.95,36.255c0.076-0.201,0.421-1.135,0.769-2.075c6.114-16.557,27.247-22.836,42.633-12.667
		c0.891,0.589,1.672,1.071,1.736,1.071s-0.084-0.841-0.328-1.868c-2.769-11.62,1.008-26.634,8.125-32.3
		c2.965-2.361,4.338-1.353,2.311,1.695c-9.011,13.551-7.721,31.614,3.516,49.233c10.591,16.606,17.326,21.652,31.726,23.77
		c3.856,0.567,3.491,1.981,3.19-12.35c-0.143-6.827-0.26-14.988-0.26-18.135c0-12.098-1.445-18.138-5.684-23.768
		c-4.704-6.247-9.477-6.399-12.525-0.398c-5.007,9.857,3.903,18.167,9.438,8.803c1.542-2.609,2.549-0.009,1.097,2.836
		c-5.32,10.406-17.86,3.113-15.375-8.941c2.73-13.243,15.136-14.296,22.918-1.944c0.655,1.04,1.228,1.854,1.274,1.808
		c0.045-0.045,0.359-1.775,0.697-3.844c1.452-8.89,4.167-19.549,8.152-32.017c4.393-13.743-3.549-24.14-12.246-16.031
		c-1.159,1.081-1.045,1.033-1.669,0.699c-1.51-0.808,0.359-3.916,3.24-5.389c5.314-2.717,11.571-0.748,14.634,4.605l0.793,1.386
		l0.924-3.654c3.117-12.328,4.929-27.103,3.231-26.358c-2.877,1.264-7.477,2.18-9.622,1.918c-3.357-0.411-9.883-2.591-11.855-3.961
		l-0.99-0.688l-0.841,0.722c-4.407,3.783-11.347,7.145-17.776,8.611c-1.392,0.317-2.562,0.61-2.6,0.65
		c-0.038,0.04-0.69,1.296-1.449,2.791c-9.33,18.378-38.941,35.746-53.477,31.367c-21.903-6.598-10.707-30.086,18.127-38.027
		c2.942-0.81,2.888-0.712,0.99-1.795c-4.194-2.392-17.207-13.087-18.155-14.92c-1.282-2.479,0.349-2.873,6.523-1.576
		c4.019,0.845,8.865,1.603,10.245,1.603h0.745l-1.443-1.421c-7.801-7.68,1.772-13.71,14.185-8.934
		c0.396,0.152,0.428,0.099,0.244-0.411c-1.126-3.123,0.795-5.248,5.282-5.844c1.141-0.152,2.108-0.309,2.148-0.349
		c0.041-0.04-1.278-1.264-2.929-2.719c-13.067-11.511-17.814-16.917-20.529-23.378c-7.736-18.412,9.942-27.908,27.457-14.749
		c16.564,12.445,25.305,27.415,29.106,49.845c0.839,4.953,0.994,5.128,4.211,4.768c2.078-0.233,5.34,0.031,7.899,0.639
		c2.857,0.679,7.652,2.101,9.599,2.847c1.05,0.402,1.96,0.68,2.022,0.618c0.42-0.42-5.922-10.467-8.666-13.729
		c-3.456-4.108-3.749-4.656-6.984-13.061c-6.301-16.37-6.727-20.264-2.222-20.264c3.266,0,13.844,8.691,20.348,16.718
		c9.176,11.326,13.819,28.052,11.69,42.119c-2.041,13.485-7.802,31.284-12.646,39.071c-1.518,2.44-1.656,2.795-3.077,7.926
		c-1.935,6.986-1.906,6.238-0.253,6.619c10.463,2.412,26.243,16.123,36.444,31.665c6.304,9.604,14.78,28.256,14.78,32.524
		c0,3.298-2.647,4.309-6.358,2.428c-16.508-8.365-40.827-37.901-47.58-57.787l-0.687-2.022l-0.397,1.343
		c-4.523,15.287-5.675,30.215-4.926,63.781l0.189,8.484h2.356c11.904,0,26.349-2.29,51.028-8.091l8.642-2.031l-0.147-5.01
		c-0.428-14.572-4.003-28.97-9.82-39.556c-1.748-3.181-1.788-3.352-0.934-4.051c1.01-0.827,1.06-0.804,3.645,1.67
		c9.364,8.963,15.297,22.8,17.664,41.199c0.324,2.52,0.506,3.289,0.77,3.265c1.248-0.11,8.443-1.426,8.615-1.576
		c0.347-0.302-4.17-17.85-8.635-33.549c-12.031-42.297-13.38-57.404-7.169-80.297c2.879-10.613,3.655-14.341,5.695-27.369
		c0.82-5.237,1.885-11.828,2.366-14.648c0.956-5.6,1.136-10.381,1.152-30.517c0.014-18.389-4.781-27.066-14.418-26.089
		c-1.376,0.139-1.577,0.236-2.254,1.078c-2.017,2.509-8.889,3.826-11.605,2.224c-0.51-0.301-0.957-0.515-0.994-0.476
		c-0.036,0.039-0.962,1.324-2.056,2.856c-8.087,11.317-20.972,23.012-25.424,23.077c-2.904,0.042-3.493-1.524-3.483-9.273
		l0.007-5.628l-4.904-0.01c-9.871-0.019-15.592-1.484-30.173-7.726c-3.29-1.408-7.354-3.057-9.031-3.665
		c-6.447-2.335-6.225-5.414,0.421-5.821c10.386-0.636,20.569-2.637,32.362-6.361l2.389-0.754l-1.18-0.674
		c-4.217-2.408-4.235-6.294-0.039-8.279c1.317-0.623,1.353-0.665,1.008-1.185c-1.314-1.979,0.305-4.417,3.303-4.975l1.518-0.282
		l-2.253-1.347c-3.96-2.368-5.99-4.927-5.377-6.779c1.067-3.223,8.17-2.012,15.851,2.702l1.009,0.619l0.108-1.497
		c0.198-2.733,2.44-4.021,4.891-2.808c0.697,0.345,1.285,0.605,1.308,0.578c0.108-0.132,1.599-9.439,1.924-12.012
		c0.787-6.226,0.932-8.855,0.994-18.066c0.036-5.237,0.075-9.815,0.088-10.174c0.075-2.128,2.546-2.871,3.978-1.197
		c3.136,3.664,11.48,23.819,14.55,35.144l0.951,3.509l1.35-2.532c2.435-4.566,5.082-10.692,8.371-19.373
		c2.08-5.491,2.545-6.23,3.913-6.23c2.119,0,2.564,1.279,2.73,7.834c0.418,16.546-2.343,31.516-7.862,42.622
		c-1.623,3.267-1.93,4.053-1.615,4.143c2.89,0.826,4.656,3.083,4.66,5.956l0.002,0.863l2.393-0.096
		c11.138-0.447,17.084,9.653,17.826,30.283l0.166,4.626l1.647-4.138c10.412-26.165,22.648-46.214,31.989-52.416
		c3.676-2.441,3.931-1.227,0.596,2.832c-11.284,13.736-21.589,32.843-29.313,54.352l-0.635,1.769l1.997-1.725
		c20.694-17.882,51.715-6.58,45.752,16.67c-5.087,19.832-32.376,27.491-38.533,10.814c-3.932-10.649,8.437-23.854,16.059-17.145
		c6.279,5.527,4.061,15.802-3.41,15.802h-1.188l0.121-1.073c0.092-0.814,0.476-1.566,1.591-3.113
		c2.101-2.914,2.151-4.329,0.241-6.826c-3.799-4.967-11.024,5.125-8.144,11.376c4.378,9.504,21.941,4.495,27.382-7.809
		c9.909-22.406-23.872-32.076-41.336-11.833c-4.143,4.803-3.971,4.165-9.215,34.171c-1.949,11.154-2.659,14.39-5.388,24.579
		c-6.212,23.188-4.969,37.479,6.725,77.349c5.012,17.087,9.775,34.895,9.776,36.546c0,0.683,0.294,0.705,4.314,0.315
		c31.832-3.087,58.198,11.117,65.38,35.222l0.164,0.549h-3.512h-3.512l-0.794-1.807c-9.371-21.323-30.258-31.321-59.13-28.303
		l-1.495,0.156l0.131,0.756c0.072,0.416,0.848,4.656,1.724,9.423c0.876,4.767,2.023,11.17,2.549,14.229L270.2,500l-2.47-0.069
		l-2.47-0.069l-0.908-4.272c-0.499-2.35-1.796-8.667-2.881-14.038c-2.325-11.505-2.095-10.62-2.761-10.621
		c-0.946,0-9.068,1.539-9.383,1.78c-0.225,0.173-0.305,1.455-0.305,4.904c0,5.201-0.309,11.621-0.857,17.804
		c-0.2,2.256-0.363,4.206-0.363,4.333c0,0.133-1.148,0.232-2.685,0.232h-2.685l0.125-7.751l0.125-7.751l-1.199,5.371
		c-0.659,2.954-1.464,6.415-1.789,7.69l-0.59,2.319l-2.751,0.069c-2.543,0.064-2.741,0.036-2.621-0.366
		c0.614-2.063,3.308-16.929,3.819-21.075c0.467-3.787,1.287-3.615-7.328-1.538c-24.277,5.853-36.227,7.848-49.708,8.301
		l-4.665,0.157l-0.17,6.371c-0.094,3.504-0.233,6.783-0.31,7.287l-0.14,0.916h-2.418h-2.418l0.133-3.967
		c0.073-2.182,0.19-5.53,0.259-7.44c0.147-4.018,0.578-3.501-3.307-3.964c-5.561-0.663-10.548-2.097-15.348-4.413
		c-5.541-2.673-9.142-1.987-18.764,3.576c-3.942,2.279-7.391,3.35-7.391,2.295c0-3.028,9.652-10.92,14.953-12.226
		c1.447-0.356,1.502-0.163-0.714-2.513c-2.597-2.754-5.282-6.428-9.408-12.875c-9.423-14.725-15.078-19.436-24.636-20.523
		c-16.752-1.905-30.214,15.948-21.665,28.729c7.756,11.597,24.376,5.753,25.489-8.962c0.249-3.29,1.307-4.055,2.382-1.723
		c6.362,13.807-13.801,28.268-27.145,19.467c-1.704-1.124-1.702-1.13-0.641,2.247c1.057,3.364,6.88,21.307,7.104,21.893
		c0.137,0.358-0.223,0.398-3.506,0.398h-3.659l-0.26-0.671c-0.385-0.997-3.725-11.267-5.278-16.231
		c-8.463-27.051-17.866-62.402-22.714-85.392c-0.354-1.678-0.707-3.216-0.786-3.418c-0.508-1.308-4.121,22.113-5.567,36.08
		l-0.386,3.732l0.86,2.661c0.473,1.464,1.911,6.376,3.194,10.916c5.818,20.577,10.26,32.951,18.28,50.919l0.627,1.404h-2.769h-2.769
		l-1.025-2.206c-7.801-16.789-13.269-33.478-16.517-50.407c-0.527-2.749-0.82-3.347-0.837-1.709
		c-0.006,0.671-0.116,2.814-0.242,4.761c-0.734,11.351-0.802,38.742-0.118,47.79l0.134,1.77h-2.678h-2.678l-0.136-1.282
		c-0.307-2.899-0.663-13.149-0.798-23.01c-0.931-67.985,17.68-144.026,49.236-201.171c8.47-15.338,14.207-24.344,38.285-60.095
		c8.001-11.88,7.75-11.426,4.915-8.882c-17.46,15.665-41.288,44.375-58.464,70.443C43.746,325,25.501,379.415,20.584,441.39
		c-0.846,10.664-0.374,44.377,0.799,57.068l0.141,1.526h-2.933C16.011,499.984,15.643,499.932,15.527,499.556L15.527,499.556z
		 M229.076,459.029c-5.794-15.949-18.535-34.387-30.595-44.274c-4.914-4.028-6.231-4.763-3.711-2.069
		c6.518,6.968,16.934,22.478,18.006,26.812c0.479,1.935-3.351-2.059-9.307-9.705c-6.615-8.493-9.525-12.006-14.814-17.888
		c-3.293-3.662-3.39-3.621-1.151,0.481c9.569,17.532,24.811,35.274,38.939,45.323C229.044,459.56,229.319,459.698,229.076,459.029
		L229.076,459.029z M103.058,383.426c10.139-2.634,22.601-11.095,32.572-22.113c2.832-3.129,6.473-7.398,6.38-7.479
		c-0.449-0.39-5.24,0.538-5.631,1.091c-7.493,10.588-38.248,25.618-50.32,24.592l-1.709-0.145l1.221,1.142
		c1.391,1.301,4.456,2.833,6.47,3.232c0.739,0.146,1.563,0.317,1.831,0.38C95.219,384.439,100.794,384.014,103.058,383.426
		L103.058,383.426z M25.374,377.73c0.862-3.612,2.777-10.586,4.461-16.25l1.511-5.08l-0.427-1.512
		c-1.795-6.358-3.061-12.927-3.583-18.59c-0.527-5.726,0.404-10.813,1.22-6.664c0.165,0.839,0.956,3.833,1.758,6.653
		c1.594,5.606,3.132,11.684,3.132,12.377c0,0.242,0.11,0.44,0.244,0.44c0.134,0,0.244-0.112,0.244-0.248
		c0-0.422,3.26-9.394,5.21-14.34l1.853-4.7l-1.089-2.784c-1.581-4.043-2.402-7.543-3.386-14.427
		c-0.479-3.357-1.36-9.454-1.957-13.55s-1.314-10.138-1.594-13.428c-0.28-3.29-0.722-8.179-0.982-10.864
		c-0.26-2.685-0.549-5.926-0.642-7.202l-0.17-2.319l-0.83,2.441c-6.755,19.871-10.508,53.404-9.139,81.664
		c0.897,18.524,1.193,21.836,2.394,26.867C24.703,380.808,24.65,380.763,25.374,377.73L25.374,377.73z M92.407,375.474
		c11.95-2.523,30.191-11.813,39.168-19.949l1.327-1.202l-2.906-0.285l-2.906-0.285l-1.914,2.064
		c-4.376,4.721-12.186,8.492-22.515,10.872c-5.811,1.339-10.256,0.987-6.175-0.489c8.325-3.011,27.534-12.805,26.056-13.284
		c-0.192-0.062-1.469-0.452-2.838-0.867s-2.986-0.966-3.593-1.226l-1.104-0.473l-4.342,1.549
		c-11.723,4.181-16.684,6.93-21.798,12.079c-4.253,4.282-6.725,9.375-5.764,11.878C83.324,376.433,88.959,376.202,92.407,375.474
		L92.407,375.474z M194.464,353.622c5.723-24.872-1.229-43.509-22.344-59.907c-1.409-1.094-2.602-1.87-2.651-1.723
		c-0.223,0.67,1.373,5.118,4.499,12.532c1.138,2.7,2.356,5.602,2.707,6.449c0.845,2.041,2.1,3.923,4.1,6.151
		c1.701,1.894,2.348,2.816,5.743,8.179c1.904,3.007,2,3.116,1.834,2.075c-0.314-1.957-1.793-6.718-3.046-9.805
		c-1.63-4.013-1.424-4.834,0.646-2.585c7.178,7.798,10.186,24.678,7.408,41.565C192.759,360.189,193.255,358.877,194.464,353.622
		L194.464,353.622z M143.554,349.956c5.755-0.883,9.822-2.218,15.661-5.141c4.858-2.432,5.131-2.692,1.866-1.776
		c-16.858,4.733-36.199,4.227-52.676-1.378c-2.236-0.761-2.175-0.652,0.677,1.199c6.053,3.928,12.803,6.438,19.36,7.2
		c1.262,0.146,2.624,0.313,3.027,0.369C133.023,350.647,141.114,350.33,143.554,349.956L143.554,349.956z M187.133,343.4
		c2.897-1.361,2.549-3.7-0.815-5.478c-3.11-1.644-15.305-4.686-18.783-4.686h-0.95l0.945,2.747c1.471,4.278,1.313,4.043,3.368,5
		C177.086,343.864,183.964,344.888,187.133,343.4L187.133,343.4z M149.902,341.997c2.963-0.357,2.894-0.394-2.248-1.195
		c-6.504-1.013-11.476-2.712-10.575-3.614c0.091-0.091,6.269-0.132,13.729-0.09c12.361,0.069,13.549,0.041,13.413-0.315
		c-0.083-0.215-0.323-0.964-0.535-1.664c-1.001-3.31-7.163-6.279-13.029-6.277c-4.34,0.003-6.664,0.54-15.757,3.656
		c-10.311,3.533-19.852,4.658-28.45,3.355c-1.408-0.213-2.596-0.351-2.64-0.307c-0.324,0.324,7.721,3.001,11.669,3.882
		C127.295,342.068,140.899,343.083,149.902,341.997L149.902,341.997z M134.755,329.285c2.758-0.83,5.053-1.538,5.101-1.572
		c0.377-0.272-1.035-2.636-2.401-4.017c-3.565-3.608-12.292-5.127-9.464-1.647c1.994,2.453,2.415,4.03,1.34,5.013
		c-1.02,0.934-1.439,0.896-5.515-0.504c-10.225-3.511-18.053-2.673-13.196,1.414c2.402,2.021,3.979,2.387,11.082,2.57
		c3.357,0.087,6.539,0.179,7.071,0.205C129.374,330.777,131.646,330.221,134.755,329.285L134.755,329.285z M159.359,327.06
		c-0.326-0.43-2.051-3.144-3.833-6.031c-1.783-2.887-3.859-6.238-4.615-7.446c-3.954-6.324-16.406-21.841-22.206-27.673
		c-2.988-3.004-12.212-10.523-15.112-12.319c-0.931-0.576-3.623,1.716-4.677,3.981c-3.184,6.844,2.683,16.552,18.159,30.041
		c11.122,9.695,15.21,14.306,16.016,18.063c0.25,1.164,0.306,1.233,0.914,1.117c0.357-0.068,1.121-0.195,1.698-0.282
		c0.578-0.087,1.013-0.23,0.967-0.318c-0.046-0.088-1.197-2.412-2.56-5.164c-1.362-2.753-3.545-6.927-4.851-9.277
		c-6.096-10.972,0.435-6.317,7.27,5.182c2.146,3.61,3.056,5.757,3.712,8.759c0.131,0.6,0.243,0.643,2.036,0.786
		c2.117,0.169,4.071,0.633,6.132,1.456C160.024,328.58,160.311,328.316,159.359,327.06L159.359,327.06z M113.576,286.7
		c-1.789-0.911-2.519-2.799-1.91-4.94c1.326-4.662,7.021-3.98,7.021,0.841C118.687,285.737,115.968,287.918,113.576,286.7z
		 M115.586,283.866c0.808-1.154,0.267-2.861-0.799-2.522c-0.646,0.205-1.211,2.172-0.775,2.697
		C114.451,284.57,115.147,284.493,115.586,283.866z M156.858,314.052c-4.58-15.958-17.332-32.253-30.271-38.685
		c-5.012-2.491-10.287-3.483-5.795-1.09c8.372,4.461,13.402,9.253,24.089,22.949c5.06,6.486,10.821,15.796,12.602,20.366
		C158.218,319.479,157.902,317.691,156.858,314.052L156.858,314.052z M199.785,273.725c4.573-3.65,15.893-14.694,15.478-15.099
		c-0.435-0.425-8.01,4.039-8.82,5.198c-2.448,3.503-4.857,5.768-6.481,6.092c-1.15,0.23-0.7-0.608,2.174-4.049
		c1.84-2.203,1.929-2.144-1.721-1.146c-1.665,0.455-3.467,0.902-4.004,0.993l-0.977,0.165l-0.059,5.617l-0.059,5.617l1.125-0.807
		C197.058,275.861,198.563,274.7,199.785,273.725L199.785,273.725z M192.918,261.34c11.137-1.466,26.528-8.772,29.147-13.836
		c0.483-0.934,0.484-0.934-2.835,1.03c-12.513,7.404-34.335,10.909-53.107,8.529c-2.512-0.319-2.502-0.204,0.062,0.724
		C175.923,261.311,184.489,262.45,192.918,261.34L192.918,261.34z M190.184,253.791c11.748-1.325,17.947-2.927,26.552-6.861
		c4.876-2.23,5.595-2.686,2.952-1.874c-2.849,0.875-5.053,1.11-10.583,1.128c-10.102,0.033-7.954-0.906,4.761-2.082
		c6.516-0.603,6.553-0.615,4.958-1.631c-5.293-3.373-11.862-2.886-25.71,1.908c-15.441,5.345-22.589,7.358-30.452,8.576
		c-2.632,0.408-2.323,0.594,1.521,0.919c1.746,0.147,3.613,0.309,4.15,0.36C171.029,254.485,186.865,254.165,190.184,253.791
		L190.184,253.791z M228.004,253.143c4.671-1.077,5.861-4.696,2.337-7.105l-1.309-0.895l-0.38,0.58
		c-0.209,0.319-1.025,1.271-1.813,2.116c-1.27,1.36-2.963,4.122-2.963,4.832C223.876,253.335,226.08,253.586,228.004,253.143z
		 M223.06,236.862c-0.298-8.497-2.366-18.811-6.35-31.677c-2.429-7.842-2.516-7.906-1.028-0.75
		c2.617,12.581,3.288,25.278,1.691,32.018c-0.097,0.409,0.114,0.628,1.101,1.14l1.221,0.634l0.127-1.262
		c0.07-0.694,0.244-2.413,0.386-3.819c0.263-2.59,0.553-3.379,0.988-2.691c0.308,0.488,0.297,5.105-0.018,7.044l-0.252,1.552
		l1.047,1.169c0.576,0.643,1.092,1.181,1.147,1.194C223.176,241.429,223.148,239.38,223.06,236.862z M228.841,236.921
		c4.276-9.989,6.962-22.059,7.606-34.177c0.078-1.477,0.196-3.18,0.261-3.784c0.172-1.595-0.086-1.04-2.21,4.761
		c-2.883,7.874-5.485,13.044-7.763,15.425l-0.977,1.021l0.523,3.279c0.288,1.803,0.523,3.591,0.523,3.972
		c0,1.249,0.398,0.316,2.038-4.776c1.637-5.083,2.312-6.592,2.947-6.592c1.6,0-0.345,9.432-3.348,16.235
		c-0.976,2.212-1.093,2.682-1.236,5.005c-0.087,1.41-0.228,2.838-0.313,3.174C226.532,241.889,227.357,240.388,228.841,236.921
		L228.841,236.921z M190.184,239.088c1.41-0.203,3.662-0.683,5.005-1.068c2.148-0.615,4.977-1.343,7.005-1.804l0.657-0.149
		l-0.488-1.103c-0.797-1.801-1.184-4.201-1.188-7.369c-0.005-3.087-0.492-5.22-1.356-5.937c-0.455-0.378-0.452-0.346,0.131,1.35
		c1.226,3.564-0.634,5.236-3.577,3.215c-0.651-0.447-2.228-1.532-3.503-2.41c-4.503-3.101-10.147-5.265-11.14-4.273
		c-0.592,0.592,1.816,2.448,6.411,4.942c6.873,3.731,7.119,5.724,0.707,5.731c-4.725,0.005-5.162,0.227-2.931,1.486
		c2.763,1.559,2.428,3.216-0.738,3.648c-4.225,0.576-5.512,1.929-3.152,3.312C183.877,239.742,185.163,239.81,190.184,239.088
		L190.184,239.088z M214.182,232.346c0.254-6.473-0.348-18.424-1.313-26.062c-0.446-3.527-2.386-15.668-2.527-15.811
		c-0.035-0.035-0.14,1.942-0.234,4.395c-0.309,8.077-0.915,12.595-3.137,23.363c-1.722,8.342-2.074,13.616-1.08,16.191l0.447,1.16
		h1.959h1.959l-0.158-0.628c-0.919-3.662-0.548-16.259,0.473-16.045c0.391,0.082,0.773,3.51,0.96,8.616
		c0.282,7.708,0.398,8.128,2.358,8.516C213.97,236.056,214.102,234.393,214.182,232.346L214.182,232.346z M26.124,493.697
		c0.006-28.54,1.96-57.822,5.143-77.087c2.973-17.991,9.267-39.34,11.067-37.54c0.455,0.455,0.139,2.603-2.074,14.102
		c-3.943,20.486-6.187,37.828-7.424,57.373c-1.014,16.027-2.882,40.808-3.413,45.297c-0.198,1.673-0.363,3.29-0.365,3.592
		c-0.005,0.508-0.115,0.549-1.47,0.549h-1.465L26.124,493.697L26.124,493.697z M338.414,498.457
		c-2.188-12.968-1.006-25.185,2.914-30.117c2.018-2.539,4.546-2.474,3.447,0.089c-2.163,5.046-1.906,18.74,0.578,30.761l0.164,0.793
		h-3.423h-3.423L338.414,498.457z M376.219,499.869c0-0.409-1.866-23.237-2.575-31.501c-6.005-69.991-11.217-89.242-25.799-95.291
		c-5.174-2.147-11.869,0.753-9.136,3.957c4.2,4.925,3.653,8.11-2.263,13.158c-2.919,2.491-2.755,2.253-2.594,3.769
		c0.272,2.574,1.751,5.318,6.086,11.297c19.995,27.575,23.577,34.183,25.066,46.234c1.608,13.015-4.626,25.97-7.1,14.754
		c-2.618-11.873-8.397-22.689-18.573-34.765c-5.719-6.787-8.859-11.281-10.707-15.328c-0.421-0.923-0.826-1.618-0.898-1.546
		c-0.199,0.199-3.681,10.486-4.365,12.894c-2.174,7.656-1.914,14.46,0.985,25.769c1.145,4.468,1.29,5.612,0.787,6.212
		c-1.472,1.755-2.176,1.304-6.615-4.249c-9.322-11.66-12.88-18.179-14.584-26.724c-0.288-1.442-0.566-2.769-0.618-2.948
		c-0.066-0.227-0.406-0.079-1.122,0.488c-5.245,4.156-9.682-0.73-7.432-8.185c0.517-1.715,0.511-1.724-0.811-1.258
		c-3.813,1.345-6.188-1.045-5.061-5.095c0.182-0.652,0.155-0.691-0.366-0.539c-10.926,3.191-23.048,1.249-31.781-5.092
		c-4.746-3.446-3.716-5.68,4.894-10.615c2.662-1.526,7.697-4.555,11.188-6.73c7.746-4.826,11.176-6.746,14.618-8.181l2.635-1.099
		l-6.185-0.153c-14.166-0.35-22.68-3.58-29.992-11.381c-7.937-8.467-9.663-16.329-2.682-12.219c5.778,3.402,14.176,4.683,22.949,3.5
		c1.41-0.19,4.321-0.586,6.47-0.879c12.904-1.761,22.233,0.624,29.464,7.532c2.699,2.578,4.243,4.763,7.147,10.111
		c1.053,1.939,0.987,1.941,2.573-0.085c5.337-6.815,8.831-7.729,13.878-3.631c0.852,0.692,1.574,1.222,1.606,1.179
		c0.031-0.043,0.298-0.48,0.593-0.971c1.276-2.124,3.896-3.719,6.864-4.178l1.667-0.258l-1.522-1.853
		c-3.454-4.205-5.074-7.166-7.233-13.222c-1.89-5.3-3.478-8.397-7.068-13.777c-4.63-6.94-4.95-9.341-1.23-9.244
		c3.001,0.079,16.78,10.116,23.389,17.038c14.299,14.976,23.006,38.125,20.55,54.635c-0.242,1.629-0.199,2.114,0.506,5.686
		c0.424,2.148,1.244,6.926,1.823,10.619c0.667,4.256,1.118,6.535,1.234,6.226c3.313-8.885,8.936-18.09,19.944-32.644
		c9.967-13.179,9.741,13.278-0.262,30.663c-3.852,6.694-13.121,15.694-17.641,17.128c-0.361,0.115-0.462,0.302-0.368,0.684
		c0.071,0.289,0.524,4.481,1.007,9.315c0.483,4.834,0.905,8.88,0.936,8.992c0.032,0.112,0.484-0.416,1.006-1.173
		c4.501-6.536,12.482-6.133,15.985,0.807c2.899,5.743,1.439,13.959-2.856,16.074c-2.451,1.207-3.94-0.106-2.273-2.004
		c3.615-4.117,1.335-14.76-3.162-14.76c-7.182,0-9.423,15.94-5.638,40.1l0.449,2.868h-2.892
		C377.52,499.983,376.219,499.932,376.219,499.869L376.219,499.869z M360.527,453.78c-0.404-7.983-3.439-15.631-10.246-25.818
		c-2.121-3.174-13.377-19.043-13.508-19.043c-0.123,0,1.786,3.138,5.263,8.656c3.546,5.626,5.795,10.143,5.05,10.143
		c-2.152,0-14.379-17.452-16.763-23.926l-0.495-1.343l0.102,2.197c0.311,6.737,3.909,13.153,13.211,23.559
		c8.274,9.255,12.921,16.548,16.22,25.452C360.666,457.181,360.699,457.185,360.527,453.78L360.527,453.78z M315.047,443.404
		c-4.187-13.583-3.579-22.212,2.832-40.222c1.836-5.158,3.252-9.637,3.095-9.793c-0.041-0.041-0.949,1.536-2.017,3.504
		c-3.216,5.923-5.883,9.838-6.27,9.203c-0.703-1.155,4.558-12.624,7.133-15.549l0.957-1.087l-0.674-0.646
		c-2.741-2.626-10.423,9.542-12.694,20.106c-2.529,11.766-0.279,23.185,6.701,33.996
		C315.372,444.87,315.523,444.949,315.047,443.404L315.047,443.404z M318.123,429.915c0.616-3.168,1.315-5.506,3.288-10.986
		c3.02-8.389,3.526-10.989,3.707-19.043l0.134-5.981l-0.604-0.558l-0.604-0.558l-0.165,1.979c-0.207,2.488-1.351,6.898-3.573,13.785
		c-4.129,12.797-4.81,19.037-3.144,28.809c0.023,0.134,0.136-0.909,0.252-2.319C317.53,433.632,317.849,431.325,318.123,429.915
		L318.123,429.915z M389.221,420.875c4.64-6.504,8.261-16.373,8.96-24.421c0.269-3.096,0.304-3.055-1.023-1.162
		c-13.388,19.093-14.876,21.394-17.146,26.524c-0.974,2.2-2.329,5.74-2.329,6.082c0,0.082,0.996-1.316,2.214-3.107
		c4.327-6.365,8.515-11.476,9.404-11.476c1.729,0,0.105,3.517-5.748,12.451l-2.959,4.516l3.488-3.547
		C386.001,424.784,388.313,422.147,389.221,420.875z M300.913,422.925c1.175-1.539,1.969-4.187,2.28-7.6
		c0.339-3.73,1.225-7.894,2.441-11.471c0.514-1.511,0.902-2.747,0.862-2.747c-0.039,0-0.951,0.663-2.026,1.473
		c-3.559,2.682-11.256,7.072-12.398,7.072c-0.328,0-0.721,1.211-0.961,2.964c-0.283,2.061,0.827,2.021,4.556-0.165
		c2.398-1.406,3.331-1.436,4.008-0.128c0.398,0.77,0.26,1.555-0.688,3.92C296.462,422.54,297.763,427.051,300.913,422.925
		L300.913,422.925z M283.653,407.091c9.482-2.111,19.723-8.56,26.221-16.511c1.306-1.599,1.153-1.615-0.9-0.097
		c-14.14,10.457-33.481,16.428-45.303,13.987c-1.532-0.316,0.075,0.402,3.309,1.479
		C272.336,407.735,278.781,408.176,283.653,407.091L283.653,407.091z M274.672,400.53c10.465-1.805,18.648-4.747,25.785-9.273
		c2.897-1.837,7.962-5.54,7.799-5.703c-0.192-0.192-4.576,1.771-9.89,4.431c-4.822,2.413-7.701,3.554-8.966,3.554
		c-3.282,0,9.555-8.9,16.017-11.104l1.831-0.625l-3.296,0.112c-7.684,0.262-13.682,2.441-23.926,8.692
		c-7.803,4.761-10.993,6.594-14.868,8.54c-2.277,1.144-3.625,1.949-3.418,2.042C262.591,401.577,271.16,401.135,274.672,400.53
		L274.672,400.53z M328.856,391.63c0-0.428,4.933-5.061,6.344-5.958c3.42-2.174,3.268-3.95-0.688-8.064
		c-5.498-5.717-6.553-5.7-11.149,0.184c-3.274,4.19-3.287,4.476-0.368,7.834c0.807,0.928,2.319,2.701,3.359,3.938
		C328.035,391.564,328.856,392.242,328.856,391.63L328.856,391.63z M367.064,387.293c-3.147-15.509-11.55-30.206-23.267-40.696
		c-2.367-2.119-6.551-5.548-6.769-5.548c-0.047,0,0.932,1.016,2.176,2.258c9.462,9.448,18.096,22.643,22.405,34.241
		c0.399,1.074,1.422,3.216,2.273,4.761c0.851,1.544,2.018,3.986,2.594,5.426c0.576,1.44,1.077,2.588,1.114,2.551
		C367.628,390.248,367.391,388.902,367.064,387.293z M305.311,375.252c-1.596-2.582-11.722-5.107-22.597-5.634
		c-11.818-0.573-18.247-1.821-24.658-4.785l-2.319-1.072l1.899,1.817c7.527,7.202,13.535,8.886,32.769,9.186
		c6.848,0.107,12.945,0.296,13.55,0.421C305.476,375.499,305.463,375.498,305.311,375.252z M353.559,368.325
		c-3.227-6.798-8.551-14.769-13.246-19.832c-0.973-1.049-1.706-1.698-1.628-1.441c2.911,9.663,6.192,14.96,13.961,22.535
		C355.276,372.153,355.336,372.07,353.559,368.325L353.559,368.325z M304.075,369.369c-0.083-0.134-0.282-0.242-0.442-0.24
		c-0.175,0.003-0.145,0.098,0.076,0.24C304.178,369.672,304.263,369.672,304.075,369.369L304.075,369.369z M302.977,368.88
		c-0.201-0.131-1.821-0.856-3.6-1.612c-6.896-2.931-7.192-4.887-0.499-3.302c2.567,0.608,2.628,0.521,0.309-0.444
		c-5.82-2.423-10.33-2.65-21.569-1.087c-2.632,0.366-6.452,0.7-9.065,0.793l-4.517,0.161l3.418,0.662
		c4.532,0.878,6.758,1.105,14.964,1.532c9.311,0.484,17.541,1.836,20.033,3.291C302.98,369.183,303.452,369.188,302.977,368.88
		L302.977,368.88z M439.68,498.824c-13.129-28.955-15.303-66.967-5.98-104.577c0.612-2.468,1.112-4.558,1.112-4.643
		c0-0.086-0.632-0.203-1.404-0.262c-9.233-0.696-14.25-17.244-10.679-35.231c2.154-10.853,4.57-16.968,6.704-16.968
		c2.383,0,2.678,1.146,1.802,7.015c-1.876,12.574-0.739,19.79,4.549,28.876c1.21,2.08,2.241,3.891,2.29,4.026
		c0.306,0.834,6.694-20.455,9.065-30.212c5.976-24.586,3.625-42.877-6.852-53.319c-6.521-6.499-14.774-6.406-20.603,0.233
		l-0.795,0.906l0.85,1.037c3.479,4.246,3.07,7.277-1.196,8.859c-0.652,0.242-1.216,0.459-1.252,0.484
		c-0.037,0.024,0.117,1.131,0.343,2.459c2.007,11.831-1.903,27.724-9.829,39.952c-10.413,16.065-29.001,30.647-31.486,24.701
		c-0.618-1.479-0.403-1.956,3.798-8.404c5.001-7.677,10.34-16.932,12.507-21.682c3.314-7.262,3.201-6.79,1.655-6.939
		c-2.694-0.259-3.795-2.828-2.8-6.536c0.198-0.738,0.362-1.366,0.363-1.395c0.003-0.029-0.519,0.171-1.157,0.445
		c-4.307,1.846-7.301-1.167-5.795-5.832c0.174-0.54,0.147-0.551-0.888-0.366c-3.512,0.628-5.477-0.395-5.771-3.004
		c-0.116-1.03-0.169-1.102-0.709-0.967c-0.321,0.081-2.036,0.255-3.811,0.388c-1.776,0.133-4.492,0.4-6.036,0.594
		c-5.403,0.678-8.479,0.852-15.747,0.885c-4.028,0.019-8.61,0.16-10.182,0.314c-6.725,0.658-7.257-1.782-1.343-6.161
		c1.773-1.313,6.245-4.637,9.938-7.387c10.117-7.534,12.921-9.469,17.272-11.917c12.119-6.819,20.059-7.589,33-3.2l4.863,1.649
		l1.302-1.321c3.601-3.655,5.923-3.838,8.698-0.687l0.975,1.107l0.671-1.144c4.86-8.293,16.897-9.702,25.452-2.979
		c0.857,0.673,1.595,1.188,1.639,1.143c0.706-0.706-5.597-21.183-9.156-29.744c-7.301-17.565-7.694-20.228-4.987-33.742
		c1.561-7.793,2.107-9.219,3.843-10.043c3.545-1.682,5.879,1.309,15.494,19.859c15.854,30.589,19.065,61.039,9.943,94.306
		c-0.47,1.716-0.855,3.236-0.855,3.379c0,0.692,7.977-7.148,11.865-11.661c6.43-7.465,10.057-5.357,7.206,4.188
		c-3.858,12.917-11.674,23.733-20.287,28.076c-0.736,0.371-2.004,1.237-2.817,1.924c-0.813,0.687-1.874,1.517-2.358,1.845
		c-0.718,0.487-0.954,0.868-1.285,2.075c-0.223,0.813-1.823,6.258-3.556,12.099c-8.644,29.14-11.309,42.492-12.084,60.546
		l-0.152,3.54l0.785-1.221c0.432-0.671,2.673-4.132,4.98-7.69c5.061-7.806,6.869-10.761,10.005-16.357
		c2.714-4.843,3.569-6.164,4.338-6.703c5.694-3.988,4.921,12.711-1.18,25.484c-3.724,7.797-8.393,11.973-16.944,15.158l-1.831,0.682
		l0.074,2.282c0.537,16.639,4.36,35.106,10.62,51.293l0.637,1.648h-3.152h-3.151L439.68,498.824z M446.111,432.616
		c3.7-3.996,6.824-10.427,8.332-17.153c0.911-4.061,0.824-4.094-1.156-0.44c-2.275,4.198-3.913,6.878-7.132,11.666
		c-2.515,3.742-2.547,3.805-1.254,2.532c3.098-3.05,3.186-0.101,0.114,3.826C443.553,434.917,444.226,434.653,446.111,432.616
		L446.111,432.616z M432.222,381.663c-1.485-2.472-1.851-3.541-1.323-3.867c0.502-0.31,1.469,0.721,3.315,3.539
		c1.176,1.795,2.004,2.838,2.143,2.699c0.372-0.372-1.028-3.013-3.913-7.381c-2.982-4.514-4.374-7.181-5.578-10.678l-0.806-2.343
		l-0.017,1.831c-0.064,7.135,2.257,13.985,5.986,17.661C433.849,384.918,433.908,384.471,432.222,381.663L432.222,381.663z
		 M388.059,363.152c20.449-16.939,29.621-41.07,23.063-60.678c-0.427-1.276-0.792-2.338-0.811-2.36
		c-0.019-0.022-0.037,3.493-0.04,7.813c-0.013,22.095-5.349,35.547-20.825,52.505C384.445,365.913,384.239,366.317,388.059,363.152
		L388.059,363.152z M463.438,341.844c3.016-3.589,8.728-13.116,8.728-14.557c0-0.147-1.126,0.84-2.502,2.193
		c-1.376,1.353-3.821,3.599-5.432,4.99c-3.36,2.902-6.234,5.722-7.451,7.311l-0.841,1.099l1.46-1.322
		c2.863-2.592,4.053-3.188,4.732-2.37c0.64,0.771-1.43,3.522-6.054,8.048c-1.687,1.651-2.954,3.087-2.954,3.347
		C453.122,351.279,461.407,344.26,463.438,341.844L463.438,341.844z M400.269,337.312c3.876-8.16,8.315-26.843,7.923-33.35
		c-0.045-0.744-2.129,4.287-2.943,7.105c-0.544,1.884-0.637,2.531-0.453,3.172c1.15,4.009-0.796,12.43-3.836,16.601
		c-0.712,0.977-0.868,1.445-1.068,3.205c-0.197,1.732-0.885,4.601-1.591,6.638C397.888,341.872,399.04,339.899,400.269,337.312
		L400.269,337.312z M395.962,330.418c3.312-2.787,5.766-12.359,4.04-15.762c-0.645-1.273-3.986-4.125-4.827-4.121
		c-3.314,0.016-8.447,2.401-11.158,5.184c-1.901,1.951-1.472,1.939,4.188-0.124c4.494-1.637,5.376-1.633,6.065,0.028
		c0.507,1.223,0.134,1.959-2.061,4.063c-4.802,4.604-4.056,5.591,1.264,1.671c4.079-3.006,5.965-1.513,3.635,2.879
		C394.701,328.776,394.107,331.979,395.962,330.418L395.962,330.418z M364.744,314.192c2.081-0.152,5.707-0.612,8.057-1.022
		c2.35-0.41,5.481-0.869,6.958-1.02c2.369-0.243,2.815-0.365,3.784-1.036c1.51-1.045,3.47-2.01,5.451-2.684
		c1.136-0.387,2.379-1.103,3.906-2.252c1.232-0.927,3.141-2.217,4.243-2.868c2.776-1.639,2.607-1.614-4.238,0.628
		c-13.162,4.311-18.151,5.591-18.151,4.656c0-0.567,5.775-3.415,11.171-5.51c2.266-0.88,2.185-0.91-0.917-0.344
		c-6.158,1.123-14.072,3.423-20.264,5.888c-2.825,1.125-12.647,5.665-12.935,5.979C351.632,314.801,360.187,314.526,364.744,314.192
		L364.744,314.192z M458.153,305.882c1.727-18.909-0.901-38.736-7.234-54.59c-3.404-8.522-13.183-27.194-13.383-25.553
		c-0.54,4.44,2.629,15.877,7.529,27.176c9.445,21.776,12.451,34.966,12.451,54.633C457.517,311.646,457.662,311.266,458.153,305.882
		L458.153,305.882z M362.791,304.603c11.292-4.389,21.829-6.483,36.68-7.289l5.552-0.301l-2.623-0.654
		c-1.443-0.36-3.831-0.99-5.308-1.401c-9.889-2.749-16.784-1.877-26.123,3.304c-3.456,1.917-12.564,7.982-11.353,7.56
		C359.818,305.751,361.247,305.203,362.791,304.603L362.791,304.603z M417.617,301.242c0.595-0.409,1.082-0.887,1.082-1.062
		c0-0.652-3.963-5.773-5.952-7.691l-0.86-0.83l-1.599,1.042c-1.911,1.245-1.886,0.981-0.195,2.03c2.11,1.31,5.92,5.771,5.92,6.932
		C416.013,302.164,416.441,302.052,417.617,301.242L417.617,301.242z M452.269,289.576c-1.556-11.778-4.029-19.813-10.483-34.056
		c-3.297-7.277-4.747-11.404-5.63-16.033c-1.024-5.363-1.096-5.569-0.981-2.808c0.192,4.612,1,7.26,5.137,16.846
		c5.654,13.099,7.826,19.991,11.267,35.757C452.624,294.07,452.877,294.178,452.269,289.576L452.269,289.576z M476.894,499.563
		c2.266-7.695,2.607-20.966,1.129-43.891c-0.268-4.162-0.651-10.095-0.851-13.184c-2.758-42.668,3.85-62.534,21.929-65.926
		l0.895-0.168v2.105v2.105l-1.335,0.59c-10.974,4.853-15.562,15.793-15.569,37.123c-0.003,7.851,0.146,11.027,1.165,24.78
		c1.147,15.483,1.331,18.455,1.626,26.181c0.429,11.251-0.096,20.502-1.582,27.896l-0.54,2.685l-3.498,0.067
		C477.01,499.992,476.776,499.966,476.894,499.563L476.894,499.563z M96.191,424.544c-1.556-1.556,0.723-4.15,2.414-2.747
		c1.314,1.091,0.593,3.235-1.089,3.235C97.005,425.033,96.489,424.842,96.191,424.544z M104.163,421.656
		c-0.93-1.027-0.219-2.727,1.141-2.727c1.343,0,2.049,1.488,1.249,2.631C106.074,422.244,104.744,422.298,104.163,421.656
		L104.163,421.656z M111.17,418.454c-1.869-0.795-1.708-3.856,0.229-4.358c1.072-0.278,1.758-0.106,2.486,0.621
		C115.636,416.468,113.48,419.436,111.17,418.454z M95.789,416.641c-2.006-1.725,0.605-4.704,2.688-3.066
		c0.519,0.408,0.643,0.711,0.643,1.569C99.121,417.015,97.217,417.87,95.789,416.641L95.789,416.641z M102.831,412.533
		c-0.817-0.817,0.001-2.637,1.184-2.637c0.479,0,1.453,0.997,1.453,1.487C105.468,412.536,103.634,413.335,102.831,412.533
		L102.831,412.533z M98.192,406.295c-0.826-0.714-0.893-1.436-0.197-2.132c1.09-1.09,2.59-0.527,2.59,0.973
		C100.585,406.5,99.203,407.169,98.192,406.295z M44.109,371.59c-0.822-4.112,3.104-16.823,12.717-41.169
		c8.04-20.362,11.039-26.858,14.354-31.095c3.206-4.098,2.735-1.369-1.724,9.984c-6.367,16.211-11.283,29.212-15.738,41.626
		C47.577,368.045,44.656,374.325,44.109,371.59L44.109,371.59z M369.493,340.205c-0.875-0.876-0.799-1.935,0.212-2.946
		c1.494-1.494,3.846-1.364,4.03,0.222C374.013,339.886,371.066,341.778,369.493,340.205z M381.851,336.255
		c-0.636-0.809-0.642-1.418-0.018-2.042c1.057-1.057,3.159,0,2.818,1.416C384.319,337.008,382.724,337.365,381.851,336.255
		L381.851,336.255z M375.052,329.682c-1.057-0.741-0.433-2.55,0.88-2.55c0.833,0,1.579,0.894,1.392,1.669
		C377.037,329.996,376.047,330.379,375.052,329.682z M106.689,316.391c-0.608-0.608-0.671-2.56-0.108-3.364
		c0.791-1.129,2.288-0.429,2.763,1.291C109.894,316.31,108.049,317.751,106.689,316.391L106.689,316.391z M115.288,313.813
		c-0.684-0.479-0.738-1.809-0.096-2.39c0.622-0.563,1.639-0.504,2.229,0.13C118.7,312.926,116.838,314.899,115.288,313.813z
		 M106.5,307.101c-0.607-0.241-1.041-1.118-0.841-1.697c0.635-1.83,2.983-1.502,2.983,0.417
		C108.642,306.924,107.608,307.542,106.5,307.101L106.5,307.101z M78.209,285.496c-0.493-1.285,4.63-10.807,5.836-10.848
		c0.861-0.029-1.97,7.002-4.142,10.283C79.258,285.907,78.467,286.17,78.209,285.496z M497.435,256.939
		c-8.09-3.532-14.722-14.185-19.678-31.613c-2.039-7.169-5.163-12.718-7.888-14.011c-2.464-1.169-5.082,0.195-5.755,3.001
		c-0.547,2.281-2.387,1.643-2.632-0.912c-0.303-3.154,2.213-6.248,5.509-6.775c1.378-0.22,1.376-0.224-1.479-2.713
		c-7.084-6.176-12.78-8.73-16.836-7.551c-2.648,0.77-3.353,3.401-1.44,5.375c1.886,1.946-0.481,2.898-2.594,1.043
		c-6.739-5.917,2.724-12.889,12.468-9.186c1.581,0.601,1.609,0.776-0.368-2.328c-7.436-11.679-8.321-19.875-2.147-19.893
		c7.515-0.022,15.275,7.974,19.78,20.382c1.078,2.968,1.109,2.967,1.302-0.049c1.216-18.976,5.893-31.341,11.646-30.792
		c1.404,0.134,1.275,0.979-0.373,2.447c-3.06,2.727-4.445,7.605-5.742,20.215c-1.728,16.802-1.305,22.973,2.678,39.062
		c1.047,4.23,2.085,8.624,2.307,9.766c1.148,5.911,8.264,16.511,12.521,18.651l1.282,0.644v3.048
		C499.997,258.278,500.168,258.132,497.435,256.939L497.435,256.939z M472.049,200.862c-4.071-16.109-10.664-26.217-17.365-26.625
		l-0.952-0.058l-0.074,1.017c-0.212,2.914,4.176,11.41,9.405,18.207c2.319,3.015,9.7,11.452,9.788,11.189
		C472.895,204.46,472.534,202.781,472.049,200.862L472.049,200.862z M333.882,256.07c-0.366-0.435-0.643-1.078-0.657-1.526
		c-0.014-0.426-0.052-5.004-0.084-10.174c-0.057-9.047-0.298-13.135-1.122-19.043c-0.295-2.113-1.734-10.838-1.8-10.917
		c-0.025-0.029-0.589,0.226-1.254,0.566c-2.527,1.293-4.99-0.261-4.992-3.152v-1.174l-1.038,0.636
		c-7.719,4.734-14.811,5.948-15.88,2.719c-0.613-1.853,1.578-4.597,5.483-6.865l2.096-1.218l-1.494-0.305
		c-2.993-0.61-4.581-3.032-3.277-4.995c0.345-0.52,0.309-0.562-1.009-1.185c-4.192-1.982-4.178-5.87,0.029-8.273l1.17-0.668
		l-3.234-1.014c-10.557-3.311-20.592-5.341-29.235-5.913c-5.998-0.397-7.08-0.786-7.08-2.547c0-1.686,0.505-2.075,4.639-3.568
		c1.544-0.558,5.499-2.167,8.789-3.575c14.811-6.34,22.82-8.273,32.126-7.754l2.952,0.165l-0.007-5.699
		c-0.01-7.827,0.571-9.386,3.483-9.344c4.444,0.065,17.353,11.782,25.424,23.077c1.094,1.532,2.02,2.817,2.056,2.856
		c0.037,0.039,0.484-0.175,0.994-0.476c2.715-1.602,9.588-0.285,11.604,2.223c0.661,0.822,0.895,0.939,2.133,1.069
		c10.374,1.084,15.106-8.63,14.547-29.864c-0.115-4.364-0.219-11.066-0.232-14.893c-0.022-6.697-0.052-7.118-0.796-11.23
		c-0.425-2.35-1.435-8.502-2.244-13.672c-0.81-5.17-1.635-10.263-1.834-11.318c-0.199-1.055-0.362-1.988-0.362-2.073
		c0-0.084-0.479,0.559-1.064,1.431c-10.362,15.431-33.754,7.279-29.605-10.317c2.432-10.314,15.511-10.781,15.386-0.549
		c-0.072,5.917-8.5,10.042-9.511,4.654c-0.282-1.503,0.857-2.549,1.354-1.243c0.779,2.048,4.127,0.208,4.342-2.387
		c0.38-4.582-4.409-5.572-6.52-1.347c-3.724,7.453,3.899,16.385,12.173,14.263c9.345-2.397,12.352-9.544,9.203-21.875
		c-2.977-11.66-3.839-23.61-2.43-33.688l0.153-1.096l-1.893,1.768c-6.896,6.44-16.687,5.581-20.288-1.781
		c-1.177-2.405-0.889-5.335,0.351-3.572c3.833,5.452,7.953,6.86,12.921,4.415c5.725-2.818,9.536-9.944,13.503-25.244
		c0.802-3.092,2.401-8.945,3.554-13.007l2.097-7.385h2.776c1.801,0,2.776,0.091,2.776,0.26c0,0.143-0.943,3.466-2.094,7.385
		c-10.783,36.68-12.195,52.841-6.455,73.832c2.9,10.606,3.546,13.611,6.467,30.095c4.576,25.821,4.349,24.983,7.955,29.419
		c14.23,17.505,43.513,14.818,43.461-3.988c-0.027-9.739-8.988-19.171-18.987-19.985c-9.641-0.785-14.319,8.743-7.642,15.562
		c4.764,4.865,9.616-0.446,5.555-6.08c-1.115-1.546-1.5-2.299-1.591-3.113l-0.121-1.073h1.188c7.471,0,9.689,10.275,3.41,15.802
		c-7.62,6.708-20.045-6.549-16.068-17.145c6.186-16.483,33.416-9.058,38.503,10.498c6.112,23.498-24.86,35.006-45.714,16.986
		l-1.997-1.726l0.644,1.77c8.12,22.297,17.951,40.531,29.304,54.352c3.351,4.08,3.083,5.26-0.64,2.812
		c-9.159-6.023-21.634-26.483-31.945-52.396l-1.647-4.138l-0.052,2.279c-0.503,22.093-6.076,32.552-17.343,32.552h-2.991
		l-0.003,0.854c-0.005,2.864-1.774,5.123-4.66,5.948c-0.315,0.09-0.006,0.883,1.628,4.171c7.655,15.406,11.21,50.428,5.118,50.428
		c-1.368,0-1.833-0.74-3.913-6.23c-3.286-8.674-5.815-14.528-8.324-19.267l-1.398-2.641l-0.818,3.022
		c-2.882,10.645-8.079,23.759-13.173,33.242c-1.9,3.537-3.375,4.33-4.832,2.598L333.882,256.07z M339.716,233.91
		c1.829-11.366,3.352-35.956,2.292-37.016c-1.484-1.484-2.276,1.133-2.544,8.413c-0.188,5.104-0.572,8.534-0.963,8.616
		c-1.021,0.214-1.392-12.383-0.473-16.045l0.158-0.628h-1.959h-1.959l-0.447,1.16c-0.997,2.584-0.647,7.857,1.075,16.174
		c2.229,10.771,2.818,15.162,3.158,23.559l0.178,4.395l0.304-1.587C338.701,240.079,339.233,236.91,339.716,233.91z
		 M364.472,231.186c-0.855-13.791-3.301-24.995-7.702-35.275c-1.515-3.538-2.278-4.914-1.949-3.514
		c0.083,0.352,0.223,1.78,0.311,3.174c0.145,2.283,0.268,2.776,1.239,4.975c3.003,6.803,4.948,16.235,3.348,16.235
		c-0.635,0-1.31-1.509-2.947-6.592c-1.64-5.092-2.038-6.025-2.038-4.776c0,0.381-0.235,2.168-0.523,3.972l-0.523,3.279l0.977,1.021
		c2.264,2.367,4.872,7.536,7.721,15.303c2.238,6.1,2.159,5.897,2.24,5.809C364.662,234.758,364.593,233.133,364.472,231.186
		L364.472,231.186z M346.297,222.031c3.191-11.376,4.753-20.587,4.77-28.127l0.005-2.492l-1.108,1.185l-1.108,1.185l0.252,1.551
		c0.544,3.354,0.245,7.864-0.475,7.145c-0.193-0.193-0.923-5.979-0.974-7.718c-0.003-0.094-0.561,0.117-1.241,0.47
		c-1.001,0.519-1.214,0.738-1.116,1.148c1.594,6.727,0.921,19.46-1.691,32.018c-0.473,2.273-0.908,4.463-0.968,4.865
		C342.46,234.5,344.921,226.935,346.297,222.031z M314.206,212.632c2.166-0.854,4.221-1.98,6.593-3.613
		c1.276-0.878,2.852-1.963,3.503-2.41c2.943-2.021,4.803-0.349,3.577,3.215c-0.583,1.696-0.587,1.728-0.131,1.35
		c0.865-0.718,1.352-2.85,1.356-5.937c0.005-3.168,0.391-5.568,1.188-7.369l0.488-1.103l-0.657-0.149
		c-2.02-0.459-4.856-1.189-7.005-1.803c-5.191-1.484-10.387-1.918-12.385-1.034c-3.271,1.447-2.283,3.064,2.253,3.686
		c3.291,0.451,3.673,2.081,0.86,3.668c-2.231,1.259-1.794,1.481,2.931,1.486c6.419,0.007,6.167,2.001-0.728,5.741
		C308.655,212.37,307.381,215.322,314.206,212.632L314.206,212.632z M340.477,192.381c3.039-0.349,7.935-2.334,7.256-2.941
		c-0.11-0.099-2.782-0.418-5.938-0.71c-12.645-1.17-14.865-2.116-4.883-2.082c5.443,0.019,7.991,0.286,10.699,1.123
		c2.655,0.82,1.929,0.359-2.946-1.87c-13.537-6.19-33.59-8.867-52.431-7.001c-3.979,0.394-4.274,0.57-1.644,0.977
		c7.864,1.218,15.02,3.234,30.452,8.576c6.893,2.387,11.23,3.565,14.325,3.891C338.084,192.632,338.279,192.634,340.477,192.381
		L340.477,192.381z M359.842,185.337c1.302-2.775-0.48-5.048-4.495-5.736c-4.14-0.708-4.361,1.34-0.58,5.391
		c0.788,0.845,1.604,1.797,1.813,2.116l0.38,0.58l1.309-0.895C358.99,186.301,359.698,185.646,359.842,185.337L359.842,185.337z
		 M349.994,185.327c-1.5-2.901-10.813-8.681-17.965-11.149c-12.12-4.184-23.42-4.1-36.171,0.268
		c-4.597,1.575-4.781,1.716-1.719,1.318c18.721-2.431,40.847,1.199,53.393,8.761C350.343,186.219,350.478,186.263,349.994,185.327
		L349.994,185.327z M342.523,173.386c-4.977-5.791-11.835-12.143-18.366-17.013l-0.914-0.682l0.06,5.631l0.06,5.631l0.977,0.164
		c0.537,0.09,2.339,0.537,4.004,0.993c3.651,0.998,3.562,1.057,1.721-1.146c-2.875-3.441-3.325-4.279-2.174-4.049
		c1.625,0.325,4.033,2.59,6.483,6.096c0.874,1.251,1.185,1.466,4.728,3.276C343.577,174.573,343.53,174.558,342.523,173.386
		L342.523,173.386z M172.186,229.472c-1.14-0.459-0.928-2.517,0.291-2.823c1.539-0.386,2.585,1.788,1.295,2.692
		C173.164,229.768,172.962,229.784,172.186,229.472L172.186,229.472z M310.193,224.54c-0.733-1.047-0.138-2.387,1.061-2.387
		c0.824,0,1.489,0.673,1.489,1.507C312.742,224.971,310.932,225.595,310.193,224.54L310.193,224.54z M320.915,223.277
		c-0.459-0.7-0.266-1.76,0.384-2.107c1.152-0.617,2.429,0.051,2.429,1.27C323.728,223.808,321.666,224.423,320.915,223.277z
		 M170.076,218.473c-1.341-1.055-0.413-3.644,1.305-3.644c1.587,0,2.205,2.444,0.901,3.566
		C171.448,219.112,170.912,219.131,170.076,218.473L170.076,218.473z M299.013,217.376c-1.317-0.715-1.079-2.618,0.388-3.106
		c1.662-0.552,2.872,1.877,1.481,2.972C300.113,217.847,299.907,217.861,299.013,217.376L299.013,217.376z M192.809,216.518
		c-0.978-0.57,0.143-2.891,1.207-2.498c0.933,0.345,1.094,1.498,0.319,2.274C193.792,216.836,193.443,216.887,192.809,216.518
		L192.809,216.518z M186.54,212.232c-1.091-1.387-0.353-3.263,1.283-3.263c1.578,0,2.459,1.985,1.493,3.364
		C188.747,213.146,187.215,213.09,186.54,212.232L186.54,212.232z M177.288,211.578c-0.615-0.655-0.673-1.382-0.185-2.324
		c0.747-1.445,2.913-1.722,3.52-0.45C181.603,210.861,178.803,213.191,177.288,211.578z M300.584,206.723
		c-0.472-0.472-0.352-1.364,0.207-1.542c1.03-0.327,1.683,1.076,0.737,1.582C300.939,207.079,300.939,207.079,300.584,206.723
		L300.584,206.723z M195.653,205.942c-0.972-0.972-1.073-1.854-0.296-2.578c1.387-1.292,4.408,0.284,3.96,2.066
		C198.931,206.969,196.956,207.245,195.653,205.942z M187.262,203.774c-2.19-1.108-1.017-3.809,1.394-3.208
		c1.78,0.444,2.057,2.49,0.429,3.171C188.074,204.159,188.024,204.16,187.262,203.774L187.262,203.774z M300.562,201.508
		c-2.3-1.935-0.007-5.56,2.78-4.396c0.455,0.19,0.994,0.675,1.206,1.083C305.909,200.83,302.814,203.403,300.562,201.508
		L300.562,201.508z M297.256,193.753c-0.51-0.373-0.586-1.456-0.139-1.994c0.364-0.439,1.737-0.486,2.149-0.074
		C300.38,192.798,298.54,194.691,297.256,193.753L297.256,193.753z M242.306,163.816c-11.055-2.387-13.438-13.852-5.375-25.866
		c3.156-4.703,7.273-9.022,15.584-16.351c2.794-2.464,5.046-4.513,5.005-4.555c-0.042-0.041-1.009-0.202-2.15-0.357
		c-4.524-0.615-6.412-2.701-5.281-5.837c0.184-0.51,0.152-0.563-0.244-0.411c-12.404,4.772-21.98-1.259-14.185-8.934
		c1.325-1.304,1.392-1.421,0.824-1.421c-1.385,0-6.561,0.798-10.34,1.594c-5.818,1.226-7.185,1.036-6.812-0.948
		c0.318-1.687,13.195-12.53,18.514-15.59c1.782-1.025,1.838-0.937-1.091-1.743c-28.699-7.904-40.042-31.519-18.249-37.996
		c14.747-4.383,44.21,12.842,53.599,31.336c0.759,1.495,1.411,2.75,1.449,2.791c0.038,0.04,1.208,0.333,2.601,0.65
		c6.469,1.475,13.19,4.736,17.785,8.628l0.85,0.72l0.799-0.609c0.755-0.576,6.608-2.941,8.618-3.482
		c3.904-1.051,8.75-0.555,12.992,1.33c0.394,0.175,0.427-0.046,0.427-2.853c0-6.823-0.698-11.622-3.115-21.417l-1.414-5.731
		l-0.708,1.214c-3.256,5.583-9.317,7.55-14.733,4.781c-2.881-1.473-4.75-4.581-3.24-5.389c0.624-0.334,0.51-0.382,1.669,0.699
		c4.454,4.153,10.83,2.611,13.022-3.149c1.419-3.728,1.181-6.709-1.117-14.004c-4.029-12.79-6.334-21.912-7.81-30.905
		c-0.339-2.063-0.653-3.788-0.698-3.834c-0.045-0.045-0.619,0.768-1.274,1.808c-4.108,6.52-10.323,10.038-14.992,8.487
		c-5.087-1.69-9.165-9.473-8.158-15.568l0.151-0.916h1.874h1.874l-0.107,2.23c-0.344,7.199,4.554,12.729,9.181,10.365
		c3.111-1.59,7.323-7.267,8.631-11.631l0.289-0.964h3.587h3.587l0.303,2.991c0.617,6.077,3.381,20.395,4.561,23.621
		c0.074,0.203,0.542-0.776,1.049-2.197c2.385-6.682,6.38-14.137,11.905-22.217l1.419-2.075l2.747-0.069
		c1.511-0.038,2.746-0.007,2.746,0.071c0,0.077-0.97,1.426-2.155,2.999c-5.087,6.748-13.465,20.157-12.928,20.693
		c0.176,0.176,5.704-5.995,9.853-10.999c1.336-1.611,4.174-5.154,6.306-7.873l3.877-4.944h1.811c1.383,0,1.767,0.072,1.628,0.305
		c-4.141,6.913-9.353,14.076-13.934,19.151c-2.365,2.62-2.488,2.893-0.744,1.648c6.746-4.815,17.328-15.727,20.177-20.805
		c0.133-0.237,1.073-0.296,3.892-0.244l3.717,0.068l-2.144,3.177c-10.089,14.951-25.53,28.149-35.668,30.486
		c-1.146,0.264-1.374,0.401-1.307,0.784c0.548,3.152,3.263,11.67,4.125,12.94c4.453,6.564,10.304,23.604,12.649,36.84
		c3.988,22.508-4.703,43.021-24.676,58.245c-11.908,9.077-12.633,0.647-1.999-23.242c0.883-1.984,2.022-3.669,4.352-6.439
		c2.716-3.228,9.081-13.314,8.665-13.729c-0.062-0.062-0.971,0.216-2.021,0.618c-1.947,0.746-6.742,2.168-9.599,2.847
		c-2.559,0.608-5.821,0.872-7.899,0.639c-3.263-0.366-3.344-0.264-4.321,5.385c-3.297,19.077-8.994,30.393-21.512,42.727
		C259.309,160.939,249.699,165.413,242.306,163.816L242.306,163.816z M249.654,159.416c9.326-2.326,23.86-15.962,30.452-28.571
		c2.088-3.994,5.781-14.302,5.781-16.136c0-0.13-0.98,1.683-2.179,4.028c-8.528,16.692-23.444,33.667-34.988,39.818
		C245.881,160.068,246.128,160.295,249.654,159.416z M245.858,155.988c9.602-7.279,12.502-10.211,22.816-23.068
		c2.585-3.223,5.621-7.123,6.746-8.667c2.123-2.914,2.646-3.724,8.034-12.451c1.783-2.887,3.499-5.589,3.813-6.004
		c1.075-1.419,0.786-1.595-1.295-0.787c-2.055,0.798-4.923,1.42-6.548,1.42h-1.047l-0.413,1.648
		c-1.832,7.31-13.309,23.09-13.172,18.11c0.017-0.608,0.604-1.902,1.94-4.272c1.761-3.126,7.952-15.295,7.839-15.408
		c-0.027-0.027-0.755-0.163-1.619-0.302c-1.719-0.277-1.947-0.165-1.954,0.957c-0.018,2.839-4.885,8.336-15.995,18.063
		c-16.96,14.851-22.368,24.964-17.067,31.915C240.096,159.972,240.723,159.881,245.858,155.988L245.858,155.988z M242.055,154.033
		c-2.717-0.83-3.579-5.211-1.424-7.243c2.51-2.368,5.952-0.336,5.949,3.512C246.577,153.102,244.531,154.79,242.055,154.033z
		 M243.602,151.304c0.723-0.722,0.04-2.881-0.912-2.881c-0.717,0-1.04,0.597-0.856,1.58
		C242.091,151.372,242.922,151.983,243.602,151.304z M301.268,138.146c20.692-16.57,26.937-34.872,20.716-60.706
		c-0.845-3.507-1.142-4.046-0.715-1.297c2.722,17.541-0.15,33.849-7.332,41.641c-2.136,2.318-2.348,1.525-0.684-2.564
		c1.262-3.101,2.71-7.772,3.028-9.766c0.166-1.041,0.071-0.933-1.834,2.075c-3.395,5.363-4.042,6.284-5.743,8.179
		c-1.998,2.225-3.253,4.107-4.102,6.151c-0.352,0.847-1.586,3.792-2.742,6.544c-3.023,7.194-4.49,11.205-4.495,12.285
		C297.361,141.224,297.698,141.005,301.268,138.146L301.268,138.146z M262.205,111.519c2.51-1.221,6.461-5.739,5.589-6.392
		c-0.053-0.04-2.349-0.741-5.101-1.558l-5.005-1.486l-7.08,0.19c-8.236,0.221-9.285,0.442-11.909,2.507
		c-5.223,4.11,2.734,5.022,13.059,1.496c4.077-1.392,4.494-1.431,5.503-0.507c1.075,0.984,0.653,2.56-1.34,5.013
		c-0.918,1.129-0.867,1.399,0.303,1.59C258.038,112.668,260.593,112.304,262.205,111.519L262.205,111.519z M283.101,103.503
		c4.124-1.039,7.839-3.567,8.512-5.791c0.212-0.7,0.453-1.449,0.535-1.664c0.137-0.356-1.055-0.384-13.413-0.316
		c-7.46,0.042-13.637,0.001-13.728-0.09c-0.902-0.902,4.069-2.608,10.504-3.605c5.212-0.808,5.288-0.847,2.319-1.192
		c-12.871-1.495-32.033,0.867-43.656,5.38c-3.06,1.188-3.045,1.244,0.203,0.756c8.656-1.3,18.237-0.168,28.504,3.368
		C273.72,104.081,278.096,104.764,283.101,103.503L283.101,103.503z M298.015,99.333c6.809-0.935,16.574-4.001,18.09-5.681
		c4.829-5.351-7.007-6.586-17.278-1.803c-2.054,0.957-1.896,0.722-3.368,5l-0.945,2.746h0.796
		C295.747,99.595,296.965,99.477,298.015,99.333L298.015,99.333z M240.667,89.849c15.483-4.36,32.94-4.381,48.343-0.057
		c3.265,0.917,2.991,0.657-1.866-1.775c-16.689-8.355-35.368-7.627-50.133,1.954c-2.852,1.851-2.913,1.959-0.677,1.199
		C237.278,90.849,239.228,90.254,240.667,89.849L240.667,89.849z M246.825,81.093c1.813-0.598,3.453-1.133,3.645-1.189
		c1.559-0.456-19.824-11.282-26.669-13.501c-1.762-0.571-1.107-1.114,1.302-1.079c8.516,0.123,22.811,6.091,28.001,11.69
		l1.914,2.064l2.906-0.285l2.906-0.285l-1.326-1.202c-11.366-10.3-33.665-20.44-45.15-20.531l-3.296-0.026l-0.083,0.977
		c-0.628,7.411,9.325,16.452,24.131,21.918c2.35,0.868,5.041,1.861,5.981,2.207c0.94,0.346,1.874,0.562,2.075,0.48
		C243.364,82.247,245.012,81.691,246.825,81.093L246.825,81.093z M268.297,76.951c-19.591-23.916-43.858-34.813-54.814-24.613
		l-1.204,1.121l1.709-0.145c12.08-1.027,42.836,14.01,50.317,24.599c0.424,0.6,0.666,0.677,2.783,0.882
		c1.276,0.124,2.463,0.24,2.639,0.258C269.903,79.072,269.26,78.126,268.297,76.951L268.297,76.951z M498.166,140.082
		c-4.659-2.382-9.99-5.957-19.775-13.262c-3.626-2.707-8.098-6.035-9.938-7.397c-3.524-2.608-4.248-3.46-3.979-4.683
		c0.314-1.429,1.535-1.97,3.786-1.678c0.873,0.114,6.201,0.305,11.841,0.425c9.695,0.207,13.32,0.458,18.249,1.264l1.648,0.27v2.048
		v2.048l-2.258-0.127c-1.242-0.07-4.62-0.294-7.507-0.499c-2.887-0.205-6.447-0.337-7.912-0.295l-2.663,0.077l4.99,2.361
		c5.319,2.516,9.745,4.349,13.215,5.471l2.136,0.691v2.285c0,2.256-0.007,2.283-0.549,2.12c-2.867-0.864-6.409-2.07-8.728-2.972
		c-1.544-0.6-2.972-1.153-3.174-1.229c-1.258-0.472,8.297,5.944,10.816,7.263l1.631,0.854l0.003,2.869
		c0,1.578-0.08,2.863-0.181,2.857S498.972,140.494,498.166,140.082L498.166,140.082z M237.853,119.975
		c-0.651-0.46-0.738-1.602-0.166-2.174c0.854-0.854,2.546-0.236,2.546,0.93C240.233,119.954,238.847,120.679,237.853,119.975
		L237.853,119.975z M229.491,119.614c-1.047-1.047-0.25-2.686,1.305-2.686c0.999,0,1.625,0.628,1.625,1.629
		C232.42,119.984,230.539,120.663,229.491,119.614z M245.723,118.635c-0.93-1.028-0.22-2.926,1.096-2.926
		c1.389,0,2.274,2.104,1.268,3.014C247.471,119.279,246.266,119.235,245.723,118.635z M227.109,108.346
		c-0.531-0.531-0.364-1.62,0.316-2.066c1.175-0.77,2.364,0.371,1.726,1.656C228.829,108.587,227.597,108.834,227.109,108.346z
		 M454.099,102.833c-2.262-1.139-1.904-2.466,2.417-8.958c3.613-5.428,5.243-8.6,7.09-13.794c2.158-6.068,3.793-9.061,7.224-13.222
		l1.528-1.853l-1.667-0.258c-2.968-0.459-5.588-2.054-6.864-4.178c-0.295-0.491-0.561-0.927-0.592-0.971
		c-0.031-0.043-0.754,0.487-1.606,1.179c-5.047,4.098-8.541,3.184-13.878-3.631c-1.586-2.025-1.52-2.023-2.573-0.084
		c-2.861,5.267-4.408,7.472-6.988,9.954c-7.3,7.024-16.556,9.44-29.501,7.701c-2.081-0.28-4.993-0.672-6.47-0.872
		c-8.886-1.204-17.302,0.064-23.071,3.477c-7.036,4.162-5.219-3.857,2.796-12.342c7.216-7.637,15.936-10.921,29.892-11.257
		l6.199-0.149l-2.049-0.821c-3.721-1.492-6.764-3.216-18.65-10.568c-2.283-1.412-6.061-3.657-8.396-4.988
		c-9.37-5.344-9.353-8.052,0.08-12.757c9.077-4.527,17.922-5.36,27.432-2.582c0.521,0.152,0.548,0.113,0.366-0.539
		c-1.127-4.05,1.247-6.44,5.061-5.095c1.322,0.466,1.329,0.456,0.808-1.258c-2.205-7.258,2.219-12.341,7.254-8.332
		c1.343,1.069,1.265,1.128,1.69-1.276c0.154-0.873,0.506-2.438,0.781-3.479l0.5-1.892h1.955c1.747,0,1.941,0.045,1.829,0.427
		c-2.624,8.906-3.023,15.783-1.362,23.485c2.284,10.592,9.956,22.747,12.699,20.12l0.674-0.646l-0.957-1.087
		c-2.572-2.922-7.836-14.394-7.134-15.548c0.398-0.654,3.445,3.887,6.663,9.932c0.84,1.578,1.566,2.831,1.613,2.784
		c0.163-0.163-1.116-4.225-3.049-9.688c-4.919-13.896-6.272-21.265-5.261-28.647l0.155-1.133h1.798h1.798v4.18
		c0,6.669,0.657,10.054,3.902,20.112c2.222,6.887,3.365,11.297,3.573,13.785l0.165,1.979l0.604-0.558l0.604-0.558l-0.134-5.981
		c-0.183-8.12-0.654-10.51-3.837-19.447c-2.174-6.104-3.655-11.47-3.655-13.245c0-0.174,0.797-0.267,2.292-0.267h2.292l0.167,1.117
		c0.366,2.441,4.771,16.543,5.348,17.12c0.072,0.072,0.508-0.687,0.97-1.686c1.711-3.704,4.623-7.97,9.171-13.434l2.588-3.11
		l3.399-0.003l3.399-0.003l-0.499,0.549c-12.605,13.881-16.481,20.25-16.822,27.649l-0.101,2.197l0.494-1.343
		c2.384-6.473,14.612-23.926,16.763-23.926c0.745,0-1.504,4.517-5.05,10.143c-3.483,5.527-5.385,8.656-5.262,8.656
		c0.313,0,14.598-20.473,16.14-23.132l0.46-0.794h2.654h2.654l-0.92,1.648c-2.557,4.579-7.312,11.546-15.453,22.644
		c-9.529,12.989-10.135,14.841-5.986,18.283c5.998,4.977,6.624,8.158,2.56,13.022c-3.432,4.107,4.538,6.597,10.718,3.35
		c10.106-5.31,15.433-19.051,19.397-50.035c0.481-3.76,0.936-7.303,1.011-7.873c0.135-1.022,0.151-1.038,1.098-1.038h0.962
		L500,20.189c0.003,19.141-0.023,20.318-0.476,22.4c-0.263,1.208-0.806,3.9-1.208,5.981c-3.547,18.372-14.167,34.751-30.422,46.921
		c-8.215,6.15-12.078,8.206-13.794,7.342L454.099,102.833z M467.068,90.186c14.569-11.478,24.166-26.794,27.914-44.548
		c0.566-2.682,0.703-4.141,0.248-2.641c-0.441,1.455-2.459,5.89-3.531,7.765c-0.655,1.144-1.869,3.783-2.698,5.864
		c-4.562,11.45-12.798,23.841-21.869,32.898c-1.244,1.242-2.223,2.258-2.176,2.258C465.004,91.783,465.954,91.064,467.068,90.186z
		 M471.73,80.21c4.441-5.733,11.755-18.204,11.075-18.884c-0.371-0.371-7.799,7.597-10.163,10.903
		c-1.968,2.752-4.469,8.371-6.029,13.551C466.421,86.416,469.62,82.934,471.73,80.21z M419.155,71.266
		c2.968-0.305,5.464-0.919,7.961-1.958c2.318-0.965,2.258-1.052-0.309-0.444c-6.998,1.657-6.438-0.306,0.999-3.504
		c4.471-1.922,5.461-2.503,2.145-1.257c-4.951,1.86-9.81,2.634-19.797,3.155c-8.482,0.443-17.367,1.527-18.042,2.201
		c-0.058,0.058,1.368,0.107,3.17,0.108c3.478,0.002,4.947,0.132,12.309,1.092C414.402,71.547,415.734,71.617,419.155,71.266
		L419.155,71.266z M390.623,66.162c4.946-1.63,10.896-2.506,20.019-2.949c10.48-0.508,15.879-1.699,21.124-4.659
		c2.027-1.144,2.055-1.37,0.116-0.92c-0.616,0.143-6.618,0.344-13.672,0.458c-13.046,0.211-13.899,0.277-18.49,1.429
		c-5.407,1.357-11.23,4.625-14.835,8.327l-1.221,1.253l2.319-1.087C387.26,67.416,389.347,66.583,390.623,66.162L390.623,66.162z
		 M458.146,59.021c0.661-0.428,2.377-1.944,3.814-3.368c4.546-4.505,4.773-6.196,1.14-8.515c-1.371-0.875-4.211-3.458-5.775-5.253
		c-0.987-1.133-0.817-1.212-3.07,1.435c-1.028,1.208-2.529,2.957-3.335,3.885c-2.951,3.4-2.897,3.934,0.86,8.444
		C455.314,59.89,456.135,60.325,458.146,59.021L458.146,59.021z M433.347,50.376c-6.29-2.075-19.308-11.084-16.017-11.084
		c1.265,0,4.144,1.141,8.966,3.554c5.314,2.659,9.697,4.623,9.89,4.431c0.161-0.161-4.877-3.849-7.823-5.726
		c-8.88-5.657-22.121-9.611-33.491-10c-6.314-0.216-6.357-0.166-1.807,2.118c3.864,1.939,6.908,3.687,14.892,8.552
		c10.565,6.437,16.867,8.659,24.78,8.736l2.441,0.024L433.347,50.376L433.347,50.376z M437.837,42.293
		c-12.292-15.04-33.127-21.387-46.398-14.135l-0.694,0.379l0.854-0.176c11.931-2.464,33.838,4.488,46.264,14.682
		C438.932,43.919,438.922,43.62,437.837,42.293L437.837,42.293z M433.54,28.917c-1.228-3.603-2.056-7.508-2.409-11.353
		c-0.442-4.812-1.872-8.159-3.826-8.955c-2.267-0.924-2.41,2.85-0.313,8.223c1.716,4.395,0.397,5.772-3.397,3.548
		c-4.086-2.396-4.942-2.292-4.437,0.536c0.378,2.115,0.29,2.012,2.574,2.997c3.477,1.5,11.573,6.512,12.226,7.569
		C434.533,32.412,434.352,31.3,433.54,28.917z M448.399,76.688c-0.805-0.889-0.251-2.239,0.918-2.239
		c0.609,0,1.363,0.69,1.363,1.247C450.681,76.893,449.177,77.547,448.399,76.688z M454.015,74.002
		c-0.843-0.932-0.242-2.239,1.029-2.239c0.84,0,1.252,0.405,1.252,1.232C456.296,74.249,454.826,74.898,454.015,74.002
		L454.015,74.002z M444.107,72.096c-0.671-0.853-0.639-1.687,0.093-2.42c1.153-1.153,3.063-0.374,3.063,1.249
		C447.263,72.659,445.162,73.438,444.107,72.096L444.107,72.096z M462.224,69.561c-1.061-0.427-0.931-2.207,0.188-2.562
		c1.357-0.431,2.326,1.611,1.155,2.431C462.953,69.859,462.963,69.858,462.224,69.561L462.224,69.561z M453.613,68.226
		c-0.765-0.922,0.665-2.353,1.587-1.588c0.437,0.363,0.475,1.253,0.07,1.658C454.866,68.701,453.976,68.663,453.613,68.226
		L453.613,68.226z M446.085,65.827c-1.51-1.608,0.247-4.083,2.292-3.228c2.08,0.869,1.443,3.793-0.827,3.793
		C446.889,66.392,446.46,66.227,446.085,65.827z M267.614,57.336c-0.543-1.428-0.77-4.525-0.772-10.522
		c-0.005-14.576-0.829-18.81-7.036-36.15c-2.445-6.83-2.477-6.896-2.304-4.743c0.421,5.251-1.49,11.077-5.481,16.706
		c-7.363,10.384-10.414,10.568-5.103,0.308c4.676-9.035,5.525-11.305,6.09-16.296c0.147-1.297,0.224-1.32-1.464,0.449
		c-3.803,3.988-14.7,10.531-18.733,11.248c-1.841,0.328,2.048-3.695,7.787-8.056c5.58-4.24,8.741-6.991,9.998-8.703l1.168-1.591
		h4.484h4.484l0.732,1.449c8.55,16.937,11.467,30.465,9.559,44.327C269.881,54.069,268.349,59.269,267.614,57.336L267.614,57.336z
		 M355.135,12.093c-0.846-0.692-0.806-0.882,0.83-3.862c1.098-2.001,2.652-5.257,3.497-7.329l0.374-0.916h3.572h3.572l-0.552,0.916
		c-1.963,3.258-3.827,5.629-6.716,8.545C356.279,12.912,356.195,12.96,355.135,12.093L355.135,12.093z M289.915,0.475
		c-0.435-0.481-0.426-0.488,0.581-0.488c0.947,0,1.004,0.036,0.762,0.488C290.926,1.095,290.477,1.095,289.915,0.475z"/>
</g>
</svg>
