<?xml version="1.0" standalone="no"?>
<!DOCTYPE svg PUBLIC "-//W3C//DTD SVG 20010904//EN"
 "http://www.w3.org/TR/2001/REC-SVG-20010904/DTD/svg10.dtd">
<svg version="1.0" xmlns="http://www.w3.org/2000/svg"
 width="1280.000000pt" height="818.000000pt" viewBox="0 0 1280.000000 818.000000"
 preserveAspectRatio="xMidYMid meet">
<metadata>
Created by potrace 1.15, written by Peter Selinger 2001-2017
</metadata>
<g transform="translate(0.000000,818.000000) scale(0.100000,-0.100000)"
fill="#000000" stroke="none">
<path d="M12520 8174 c-27 -9 -55 -57 -55 -97 0 -31 7 -45 33 -68 18 -16 38
-26 47 -23 29 11 15 -5 -32 -38 -48 -32 -213 -195 -213 -209 0 -4 -10 -20 -23
-36 -28 -35 -97 -194 -97 -225 0 -56 -10 -68 -54 -68 -23 0 -48 -6 -55 -12
-11 -11 -13 -10 -7 5 17 49 17 67 0 96 -25 42 -56 41 -83 -3 -12 -18 -21 -45
-21 -60 l0 -27 -23 27 c-19 21 -33 27 -68 28 -43 1 -44 0 -47 -33 -3 -27 3
-40 29 -67 32 -33 32 -34 10 -34 -13 0 -36 -8 -52 -17 -34 -20 -40 -67 -11
-89 20 -16 72 -18 72 -4 0 6 9 10 19 10 17 0 19 -5 14 -34 -11 -71 20 -111 67
-86 26 14 52 64 43 86 -4 11 8 6 37 -15 48 -34 71 -38 94 -16 20 20 22 14 30
-75 9 -93 29 -191 61 -295 98 -322 146 -516 128 -522 -14 -5 -4 -53 12 -53 11
0 25 -20 25 -35 0 -2 -13 -6 -30 -10 -29 -6 -30 -7 -12 -30 9 -13 26 -25 36
-27 23 -4 34 -28 13 -28 -17 0 -27 -21 -27 -56 0 -20 5 -24 30 -24 21 0 30 -5
30 -16 0 -9 -6 -14 -12 -12 -7 3 -19 -2 -27 -10 -19 -18 -4 -44 30 -53 23 -5
28 -30 8 -37 -5 -2 -9 -10 -9 -17 0 -8 -12 -15 -27 -17 -39 -4 -43 -46 -8 -71
21 -15 25 -16 25 -2 0 8 7 15 15 15 8 0 15 7 15 15 0 8 5 15 10 15 6 0 10 -12
10 -26 0 -14 -4 -23 -10 -19 -6 4 -10 -8 -10 -29 0 -25 4 -36 15 -36 8 0 15
-6 16 -12 0 -7 4 -47 7 -88 l7 -75 -32 3 c-24 3 -35 0 -39 -13 -14 -37 30 -65
64 -41 10 7 12 -10 10 -85 -3 -83 -5 -94 -20 -91 -14 2 -18 -4 -18 -28 0 -18
6 -33 15 -36 17 -7 21 -44 5 -44 -6 0 -13 7 -16 15 -8 21 -63 20 -71 -1 -9
-24 10 -48 39 -52 15 -2 30 -13 37 -28 14 -33 15 -32 -11 -36 -32 -4 -36 -42
-6 -62 17 -12 20 -18 10 -28 -7 -7 -12 -8 -12 -4 0 5 -7 3 -15 -4 -8 -7 -15
-23 -15 -37 0 -13 7 -26 15 -29 22 -9 18 -31 -5 -37 -22 -6 -27 -36 -8 -55 8
-8 9 -21 0 -49 -6 -21 -16 -60 -23 -87 -10 -39 -14 -45 -20 -30 -16 41 -22 59
-25 71 -4 22 -63 100 -96 129 -19 17 -48 36 -66 43 -20 8 -32 21 -32 32 0 14
-7 19 -28 19 -15 0 -32 -4 -38 -10 -6 -6 -23 28 -49 103 -59 172 -103 255
-272 508 -31 47 -215 224 -282 272 -268 190 -549 181 -724 -25 -87 -103 -172
-307 -199 -479 -29 -186 -8 -309 67 -388 43 -45 44 -46 117 -49 126 -6 255 55
329 155 22 29 46 53 53 53 7 0 19 7 27 16 10 13 10 20 -3 42 -15 26 -15 28 9
45 36 28 28 61 -17 67 -28 4 -36 10 -38 29 -5 30 -33 62 -39 44 -3 -9 -19 -5
-53 12 -57 29 -70 31 -70 11 0 -8 19 -21 43 -28 41 -14 65 -48 33 -48 -9 0
-16 5 -16 10 0 15 -46 12 -59 -4 -12 -15 1 -51 24 -68 6 -5 3 -8 -7 -8 -10 0
-25 -11 -34 -25 -23 -35 -3 -59 42 -52 31 5 32 4 24 -21 -8 -31 7 -52 40 -52
15 0 22 8 27 30 3 17 10 30 15 30 6 0 7 -12 4 -27 -11 -45 -128 -140 -207
-168 -56 -20 -165 -18 -209 3 -31 15 -38 27 -62 97 -32 93 -35 158 -13 291 31
195 138 425 241 521 46 42 110 73 189 89 100 21 155 14 269 -31 113 -44 169
-77 231 -134 28 -26 61 -55 75 -66 63 -49 290 -346 290 -379 0 -3 -7 -6 -15
-6 -10 0 -15 -10 -15 -30 0 -28 3 -30 35 -30 31 0 37 -4 59 -47 22 -44 106
-275 106 -292 0 -4 -12 -7 -26 -6 -28 0 -33 -7 -54 -65 -24 -71 -32 -116 -26
-167 8 -73 89 -237 147 -299 l24 -26 -55 22 c-73 29 -239 71 -268 68 -22 -3
-26 5 -49 77 -53 169 -184 273 -333 265 -70 -4 -146 -24 -157 -43 -4 -7 -24
-23 -43 -34 -19 -12 -51 -39 -71 -60 -41 -42 -139 -189 -139 -207 0 -6 -10
-29 -21 -51 -12 -22 -38 -123 -60 -230 -38 -185 -39 -195 -39 -400 1 -151 6
-248 20 -345 10 -74 17 -136 15 -138 -2 -2 -11 13 -20 34 -26 64 -215 373
-286 469 -129 175 -295 328 -472 434 -60 37 -212 81 -276 81 -49 0 -77 -5
-168 -25 -21 -5 -33 -15 -106 -82 -54 -50 -71 -98 -75 -219 -4 -105 -3 -114
28 -190 40 -100 72 -155 126 -221 47 -55 53 -66 29 -57 -9 4 -15 0 -15 -10 0
-9 -7 -16 -15 -16 -14 0 -13 -3 2 -25 19 -26 52 -32 83 -15 16 8 29 1 77 -43
99 -90 244 -193 306 -218 15 -6 27 -15 27 -19 0 -5 9 -12 20 -15 12 -4 20 -15
20 -29 0 -44 59 -74 78 -40 8 14 25 8 123 -41 63 -32 128 -63 146 -69 26 -9
-2 -11 -145 -11 -97 0 -212 -4 -254 -8 l-78 -8 0 34 c0 41 -37 80 -72 75 -36
-5 -38 -62 -2 -95 l27 -25 -54 7 c-40 5 -62 3 -84 -9 -16 -9 -39 -16 -49 -16
-11 0 -58 -12 -104 -26 -47 -14 -112 -29 -146 -32 -53 -6 -61 -10 -64 -29 -2
-13 -7 -23 -12 -23 -5 0 -15 -2 -23 -5 -11 -5 -13 5 -9 50 4 53 4 55 -21 55
-48 0 -57 -9 -57 -56 0 -40 2 -44 31 -51 l31 -8 -94 -64 c-101 -69 -114 -82
-159 -153 -17 -27 -34 -48 -38 -48 -14 0 -32 -68 -38 -140 -7 -98 20 -174 83
-236 36 -35 44 -49 44 -79 l0 -37 48 4 c67 7 145 -11 138 -31 -3 -9 -22 -59
-42 -111 -24 -62 -41 -125 -48 -182 -10 -86 -11 -88 -36 -88 -35 0 -60 -41
-40 -66 9 -10 24 -14 42 -12 l28 5 0 -81 c0 -45 4 -97 10 -115 5 -19 6 -30 1
-25 -10 11 -130 196 -160 246 -13 21 -28 41 -34 45 -7 5 -25 23 -40 42 -45 54
-156 139 -232 176 -84 42 -170 54 -249 35 -100 -24 -186 -125 -186 -218 0 -48
1 -47 -44 -28 -49 21 -125 28 -176 17 -59 -12 -120 -36 -129 -48 -3 -6 -21
-18 -39 -27 -19 -10 -41 -31 -50 -47 -10 -16 -21 -29 -27 -29 -11 -1 -55 -65
-55 -81 0 -14 -7 -12 -71 22 -32 18 -59 37 -59 44 0 10 5 11 25 2 14 -7 25
-16 25 -20 0 -4 9 -3 20 3 24 13 27 55 4 68 -14 8 -12 12 15 28 50 30 37 64
-25 64 -19 0 -24 5 -24 24 0 13 -6 29 -14 35 -12 10 -12 18 0 58 31 102 10
176 -64 228 -40 27 -51 30 -146 33 -94 4 -107 2 -152 -21 -98 -49 -99 -132 -3
-274 34 -52 54 -71 110 -108 20 -13 50 -41 68 -63 l31 -40 -53 -59 c-29 -32
-65 -74 -81 -93 -16 -19 -45 -47 -65 -61 -33 -25 -38 -26 -63 -13 -40 21 -160
44 -227 44 -69 0 -133 -25 -206 -80 -69 -52 -126 -162 -133 -259 -3 -45 -1
-71 7 -75 6 -4 11 -15 11 -24 0 -22 -155 -105 -323 -172 -71 -28 -151 -62
-178 -75 -26 -14 -65 -25 -86 -25 -56 0 -79 -9 -91 -35 -8 -16 -25 -26 -64
-35 -29 -7 -122 -34 -207 -61 -84 -27 -219 -65 -300 -84 -80 -20 -186 -47
-236 -60 -81 -22 -142 -31 -170 -25 -5 1 4 5 20 9 24 5 31 12 33 35 4 28 3 29
-38 23 -31 -4 -39 -2 -31 6 16 16 13 42 -7 61 -18 15 -20 15 -34 -1 -8 -10
-18 -26 -22 -37 -6 -18 -7 -18 -25 -1 -44 39 -81 -8 -40 -51 22 -23 22 -24 2
-24 -24 0 -58 -34 -48 -49 3 -6 3 -11 -2 -11 -4 0 -66 -7 -138 -16 -157 -19
-526 -22 -640 -5 -44 7 -118 23 -165 36 -47 13 -97 26 -111 29 -23 5 -94 47
-181 107 -15 11 -31 19 -36 19 -10 0 -73 65 -96 100 -18 28 -21 50 -6 50 6 0
39 18 75 41 74 46 124 110 150 187 16 49 16 56 1 94 -27 66 -66 108 -124 135
-67 30 -122 25 -163 -17 -31 -31 -59 -114 -59 -176 0 -57 39 -225 57 -246 17
-19 19 -18 -92 -63 -174 -70 -685 -155 -1079 -180 -224 -14 -251 -14 -272 0
-31 20 -94 19 -124 -2 -21 -15 -62 -18 -313 -21 l-289 -5 15 24 c28 44 30 83
7 112 -32 41 -70 36 -124 -15 l-44 -43 -4 51 c-5 62 -33 94 -81 94 -34 0 -84
-41 -72 -60 3 -5 1 -11 -4 -14 -5 -3 -12 2 -16 12 -6 13 -11 6 -19 -28 -11
-41 -15 -45 -46 -48 -19 -2 -41 -8 -47 -14 -10 -8 -13 -6 -13 7 0 9 9 19 19
22 20 5 35 29 27 42 -3 4 -22 5 -43 3 -31 -4 -34 -6 -18 -13 19 -7 19 -8 -2
-8 -19 -1 -23 -7 -24 -33 0 -33 0 -33 -11 -8 -6 14 -12 27 -13 30 -1 3 -5 12
-8 20 -3 8 -8 29 -9 45 -2 25 1 31 20 33 17 3 22 -2 22 -17 0 -14 6 -21 20
-21 27 0 27 36 0 43 -11 3 -20 12 -20 21 0 19 -40 22 -40 4 0 -7 -9 -24 -20
-38 -22 -28 -26 -60 -8 -78 9 -9 9 -12 1 -12 -7 0 -14 4 -17 9 -7 11 -56 21
-56 11 0 -4 8 -11 18 -14 37 -14 67 -36 74 -56 8 -21 6 -21 -34 -15 -24 4 -45
11 -46 16 -2 5 -12 9 -22 9 -22 0 -35 16 -20 25 5 3 10 15 10 26 0 30 -44 22
-48 -9 -2 -12 1 -22 6 -22 5 0 12 -9 15 -20 7 -29 -10 -25 -51 11 -20 18 -56
41 -81 51 -26 11 -55 24 -67 29 -11 6 -42 9 -70 7 -44 -3 -49 -6 -52 -28 -2
-21 5 -30 36 -48 22 -12 53 -22 70 -22 17 0 33 -4 36 -9 3 -4 31 -11 62 -15
68 -8 94 -20 94 -46 0 -28 -30 -40 -117 -46 -83 -7 -298 8 -360 25 -21 5 -59
16 -86 23 -26 7 -47 18 -47 25 0 7 -17 15 -37 19 -32 6 -40 3 -59 -19 -15 -18
-20 -34 -16 -49 13 -52 77 -65 111 -22 15 19 26 24 38 19 62 -26 347 -59 438
-51 33 3 69 6 80 6 36 2 85 40 85 66 0 19 5 24 25 24 14 0 28 -7 32 -16 4 -12
14 -14 45 -9 l39 7 -7 -51 c-4 -34 -2 -61 7 -83 14 -35 43 -68 59 -68 15 0 50
38 50 55 0 19 -34 19 -50 0 -7 -8 -16 -15 -21 -15 -12 0 -11 121 1 140 8 12
10 11 10 -7 0 -13 5 -23 10 -23 6 0 10 -9 10 -20 0 -22 35 -28 43 -7 4 9 8 9
15 -2 7 -9 19 -11 38 -7 27 7 27 6 -14 -38 -51 -56 -58 -105 -17 -132 30 -19
64 -13 116 21 l37 24 6 -34 c8 -43 56 -95 88 -95 39 0 68 42 68 99 0 28 -4 53
-10 56 -5 3 -10 10 -10 16 0 9 7 7 57 -19 45 -24 99 -7 123 38 20 38 -31 102
-91 113 -13 2 112 5 279 6 l302 1 0 -35 c0 -26 9 -43 37 -73 21 -21 46 -52 55
-70 10 -18 23 -32 30 -31 7 1 21 -1 31 -5 9 -5 24 -6 32 -2 8 3 17 6 20 6 3 0
16 10 30 22 21 18 25 31 25 74 0 46 -4 55 -30 77 -58 49 -49 52 193 66 273 15
822 93 921 131 15 5 68 21 117 35 49 14 103 33 120 43 l32 18 88 -91 c74 -77
103 -98 174 -133 47 -23 89 -42 93 -42 5 0 35 -11 68 -24 166 -68 527 -86 876
-46 95 11 178 22 185 25 7 2 13 -7 15 -23 2 -16 10 -28 20 -30 19 -4 48 19 48
37 0 16 11 14 32 -6 24 -21 54 -6 51 25 -2 17 5 22 35 27 20 4 58 13 84 21 26
9 98 26 160 39 156 34 339 85 491 139 129 46 163 54 152 36 -8 -13 23 -98 44
-123 15 -17 14 -18 -14 -10 -55 15 -136 6 -162 -19 -13 -12 -23 -29 -23 -38 0
-9 -5 -21 -11 -27 -17 -17 22 -75 67 -100 22 -12 58 -22 83 -22 l43 -1 -26
-35 c-31 -40 -51 -124 -32 -131 7 -3 55 -3 107 -2 l94 3 17 35 c13 25 18 30
18 15 1 -47 21 -55 129 -55 83 0 103 3 108 16 3 8 1 20 -5 26 -6 6 -8 17 -5
24 3 8 1 14 -5 14 -5 0 -12 8 -16 18 -3 9 -8 22 -11 28 -4 7 14 9 55 6 39 -3
65 0 75 8 37 30 24 -5 -23 -67 -29 -37 -48 -71 -44 -75 4 -4 473 -7 1042 -6
1032 3 1102 5 1013 35 -22 8 -2 11 92 16 66 4 140 10 164 13 42 7 43 6 32 -15
-7 -12 -9 -26 -6 -31 4 -6 122 -10 309 -10 l304 0 12 99 c7 56 11 171 9 260
-4 169 0 181 36 99 11 -24 32 -59 47 -79 15 -20 28 -40 28 -44 0 -8 65 -90
103 -128 15 -16 27 -32 27 -36 0 -9 127 -113 179 -145 39 -25 46 -26 202 -26
181 0 195 5 241 78 19 31 23 50 23 122 -1 72 -5 95 -30 150 -43 96 -132 207
-212 264 l-33 23 88 6 c51 4 120 18 169 34 l82 27 163 -28 c90 -15 171 -30
180 -32 15 -4 13 -16 -19 -102 -20 -53 -42 -128 -49 -167 -14 -73 -19 -290 -8
-344 l7 -31 433 0 c335 0 435 3 441 13 20 32 47 120 60 197 7 47 18 99 23 115
5 17 12 84 16 151 l7 121 50 16 c28 9 52 15 52 14 1 -1 16 -24 34 -50 32 -47
32 -49 15 -68 -27 -30 -21 -81 12 -119 25 -28 34 -31 69 -28 22 3 47 8 55 11
10 5 39 -17 92 -68 42 -41 92 -81 110 -90 38 -18 70 -36 89 -51 19 -15 96 -45
144 -56 22 -6 88 -11 148 -12 l107 -2 0 472 0 472 -51 46 c-28 25 -56 46 -62
46 -5 0 -33 18 -61 39 -28 21 -67 46 -86 54 -19 9 -46 22 -60 31 -24 14 -89
44 -177 83 l-43 18 194 1 c114 0 211 5 233 12 21 6 55 14 76 17 l37 6 0 479
c0 448 -1 479 -17 482 -23 5 -85 -9 -148 -33 -28 -10 -56 -19 -64 -19 -7 0
-58 -21 -112 -46 l-99 -47 -57 54 c-32 30 -59 57 -61 61 -2 3 15 53 37 110 34
87 85 296 80 324 -5 32 5 43 54 58 95 31 192 69 209 84 10 8 39 25 65 38 26
13 63 36 81 52 l33 30 -4 328 c-5 396 -3 388 -119 562 -15 22 -32 43 -38 47
-5 3 -10 11 -10 16 0 6 10 3 22 -5 12 -9 29 -16 38 -16 8 -1 33 -9 55 -20 22
-10 43 -15 48 -11 4 4 6 90 5 192 l-3 184 -60 -1 -59 -2 25 22 c14 11 42 34
62 51 l37 30 0 222 0 223 -32 0 c-37 0 -108 -23 -142 -45 -21 -14 -26 -14 -52
0 -16 8 -48 15 -71 15 -24 0 -43 5 -43 10 0 6 7 10 15 10 17 0 20 31 5 46 -7
7 -7 19 -2 35 5 13 13 58 16 100 4 42 14 89 22 104 9 17 12 41 8 66 -5 32 -4
39 10 39 11 0 16 9 16 30 0 17 -4 30 -10 30 -5 0 -10 7 -10 15 0 9 9 15 25 15
29 0 40 19 31 55 -7 26 -41 35 -49 13 -2 -7 -7 37 -11 97 -4 61 -10 118 -12
128 -4 14 1 17 30 17 35 0 36 1 36 36 0 35 -1 36 -35 32 -38 -4 -47 10 -20 32
23 19 19 60 -5 60 -17 0 -20 7 -20 40 0 22 -4 48 -9 58 -14 27 -64 291 -65
346 -1 30 -6 51 -13 53 -19 7 -16 20 7 26 45 12 35 68 -15 77 -25 5 -30 14
-62 120 -19 63 -45 158 -58 210 -12 52 -32 126 -44 165 -28 92 -50 250 -50
355 0 92 12 233 24 271 15 46 78 174 107 216 59 87 225 222 368 300 105 58
113 64 102 75 -7 7 -27 1 -65 -20 l-55 -31 -6 37 c-10 55 -38 84 -89 88 -23 1
-49 1 -57 -2z m-360 -906 l-1 -43 -24 28 c-13 15 -30 27 -37 27 -12 1 38 27
55 29 4 1 7 -18 7 -41z m298 -2638 c17 0 15 -10 -8 -48 -11 -18 -20 -42 -20
-55 0 -12 -4 -28 -9 -35 -10 -16 -22 101 -14 141 5 26 7 27 23 12 9 -8 22 -15
28 -15z m-423 -604 c-82 -54 -181 -181 -205 -261 -7 -22 -22 -47 -33 -56 -14
-12 -21 -32 -25 -71 -4 -54 -3 -56 32 -84 20 -16 36 -33 36 -39 0 -12 -51 -48
-100 -70 -60 -27 -205 -127 -292 -201 -46 -38 -89 -74 -96 -78 -7 -4 20 37 59
91 39 54 74 105 77 113 3 8 17 32 31 53 22 35 109 221 149 322 8 22 21 47 28
55 8 9 20 45 29 80 8 36 22 88 31 117 l17 52 129 0 c71 -1 132 2 135 5 4 3 16
6 27 6 15 0 7 -9 -29 -34z m311 -242 c9 -43 17 -83 18 -87 0 -5 -30 -17 -69
-28 -38 -10 -70 -19 -71 -19 0 0 18 37 41 83 23 45 45 95 49 111 4 15 9 26 11
24 3 -2 12 -40 21 -84z m-2111 -1643 c22 -36 51 -66 159 -163 l39 -35 -15 -39
c-20 -49 -78 -250 -78 -268 0 -8 -17 -16 -42 -20 -61 -10 -120 -33 -223 -89
-109 -59 -175 -109 -216 -165 -34 -46 -52 -59 -21 -14 40 56 103 204 133 310
31 111 32 287 1 356 -12 26 -20 52 -17 56 11 18 66 22 84 6 10 -9 23 -16 30
-16 19 0 41 26 41 49 0 14 14 28 48 45 26 14 48 25 49 26 2 0 14 -18 28 -39z
m-2498 -176 c96 -44 117 -124 66 -254 -23 -60 -28 -67 -41 -54 -8 8 -26 13
-41 11 -20 -2 -27 -9 -29 -29 -2 -14 4 -31 13 -39 14 -11 12 -14 -12 -27 -26
-13 -28 -12 -115 74 -62 61 -97 105 -114 142 -26 58 -31 118 -11 143 47 60
191 77 284 33z m7 -496 c5 -26 10 -30 33 -27 17 1 53 -10 90 -29 l61 -32 -31
-78 c-29 -76 -30 -83 -35 -283 -3 -113 -7 -198 -10 -190 -3 8 -41 65 -84 126
-73 102 -196 235 -258 277 l-25 17 70 68 c39 37 93 93 120 124 28 32 53 58 56
58 4 0 9 -14 13 -31z m1054 -282 c56 -38 102 -70 102 -73 0 -2 -10 -2 -22 0
-13 3 -64 12 -114 22 l-92 17 1 58 c0 40 4 56 11 51 6 -4 57 -38 114 -75z
m-50 -77 c23 -6 78 -15 122 -20 44 -5 110 -21 147 -35 37 -15 76 -29 86 -33
10 -4 -47 -5 -127 -4 -128 3 -234 -5 -303 -24 -22 -6 -23 -4 -18 45 6 73 13
93 33 87 9 -3 36 -10 60 -16z m-4999 -90 c96 -48 137 -122 111 -200 -29 -86
-202 -233 -235 -199 -21 21 -55 161 -55 224 0 94 17 141 63 175 23 17 45 30
49 30 5 0 35 -13 67 -30z m7336 -60 c-19 -28 -35 -56 -35 -62 0 -5 -13 -28
-28 -51 -15 -23 -41 -70 -57 -104 -17 -35 -33 -63 -37 -63 -4 0 -72 11 -150
25 -78 14 -145 25 -148 25 -3 1 32 16 77 34 92 38 210 108 328 194 44 33 81
58 83 57 1 -1 -13 -26 -33 -55z m737 -147 c12 -27 37 -70 55 -98 l34 -49 -33
-12 c-65 -24 -66 -23 -71 74 -2 48 -7 97 -12 110 -14 41 6 22 27 -25z m-4922
-15 c0 -28 84 -149 144 -208 39 -38 58 -65 62 -89 8 -41 90 -127 138 -144 l31
-11 -25 -7 c-14 -4 -42 -7 -62 -8 -20 -1 -47 -5 -60 -10 -13 -5 -50 -15 -83
-22 -64 -13 -199 -75 -252 -116 -35 -25 -43 -20 -18 13 21 28 18 66 -8 105
-25 38 -49 47 -126 48 l-55 1 31 33 c57 60 68 135 26 179 -56 59 -152 28 -209
-68 -10 -17 -13 -14 -29 21 -10 22 -27 49 -37 61 -18 20 -17 21 174 98 106 42
227 97 268 120 75 44 89 44 90 4z m-6300 -348 c33 -17 60 -32 60 -34 0 -8 -86
6 -127 20 -23 8 -47 22 -53 30 -23 27 56 16 120 -16z m538 -51 c-2 -5 -12 -3
-23 5 -17 13 -18 17 -5 25 16 11 35 -10 28 -30z"/>
<path d="M10114 2036 c-3 -8 -4 -27 -2 -43 2 -22 8 -28 27 -28 13 0 30 9 37
20 12 18 11 24 -2 43 -17 25 -52 29 -60 8z"/>
<path d="M10195 1943 c-19 -42 -6 -63 37 -63 28 0 29 2 26 38 -3 32 -7 37 -29
40 -18 2 -29 -3 -34 -15z"/>
<path d="M10294 1866 c-15 -40 21 -80 54 -60 37 24 21 74 -25 74 -13 0 -26 -6
-29 -14z"/>
<path d="M12572 6588 c-27 -27 -3 -73 35 -66 27 5 25 72 -2 76 -11 1 -26 -3
-33 -10z"/>
<path d="M12664 6555 c-12 -30 5 -65 31 -65 29 0 45 41 25 65 -16 19 -49 19
-56 0z"/>
<path d="M12472 6528 c3 -29 7 -33 36 -36 31 -3 32 -2 32 32 0 35 -1 36 -36
36 -34 0 -35 -1 -32 -32z"/>
<path d="M12730 6461 c0 -29 3 -31 36 -31 33 0 35 2 32 28 -2 22 -8 28 -35 30
-31 3 -33 1 -33 -27z"/>
<path d="M12410 6450 c0 -27 3 -30 30 -30 27 0 30 3 30 30 0 27 -3 30 -30 30
-27 0 -30 -3 -30 -30z"/>
<path d="M12770 6370 c0 -11 7 -20 15 -20 8 0 15 9 15 20 0 11 -7 20 -15 20
-8 0 -15 -9 -15 -20z"/>
<path d="M11857 6123 c-4 -3 -7 -19 -7 -35 0 -24 4 -28 30 -28 28 0 30 3 30
35 0 30 -3 35 -23 35 -13 0 -27 -3 -30 -7z"/>
<path d="M11950 6086 c0 -35 1 -36 36 -36 34 0 35 1 32 33 -3 28 -7 32 -35 35
-32 3 -33 2 -33 -32z"/>
<path d="M11750 6071 c0 -29 3 -31 36 -31 33 0 35 2 32 28 -2 22 -8 28 -35 30
-31 3 -33 1 -33 -27z"/>
<path d="M12050 6075 c-15 -18 -10 -45 12 -58 23 -15 48 8 48 44 0 24 -4 29
-24 29 -13 0 -29 -7 -36 -15z"/>
<path d="M11683 6028 c-5 -7 -7 -24 -3 -38 4 -18 13 -25 30 -25 22 0 25 5 28
38 3 33 1 37 -21 37 -14 0 -29 -6 -34 -12z"/>
<path d="M12130 6005 c0 -33 2 -35 35 -35 33 0 35 2 35 35 0 33 -2 35 -35 35
-33 0 -35 -2 -35 -35z"/>
<path d="M12229 5986 c0 -1 -3 -16 -5 -33 -5 -32 -4 -33 30 -33 31 0 36 3 36
24 0 26 -13 39 -42 41 -10 1 -18 1 -19 1z"/>
<path d="M12776 5983 c-12 -12 -6 -33 9 -33 8 0 15 6 15 14 0 17 -14 28 -24
19z"/>
<path d="M11660 5900 c0 -28 3 -30 35 -30 32 0 35 2 35 30 0 28 -3 30 -35 30
-32 0 -35 -2 -35 -30z"/>
<path d="M12302 5888 c3 -29 6 -33 33 -33 21 0 31 5 33 18 5 25 -16 47 -45 47
-21 0 -24 -4 -21 -32z"/>
<path d="M12754 5885 c-8 -34 1 -55 26 -55 17 0 20 6 20 40 0 33 -3 40 -20 40
-13 0 -22 -9 -26 -25z"/>
<path d="M11700 5810 c0 -28 3 -30 35 -30 32 0 35 2 35 30 0 28 -3 30 -35 30
-32 0 -35 -2 -35 -30z"/>
<path d="M12720 5774 c0 -31 24 -53 58 -54 21 0 23 4 20 38 -3 35 -5 37 -40
40 -35 3 -38 1 -38 -24z"/>
<path d="M11770 5730 c0 -27 3 -30 30 -30 27 0 30 3 30 30 0 27 -3 30 -30 30
-27 0 -30 -3 -30 -30z"/>
<path d="M11857 5704 c-13 -13 -7 -65 8 -70 23 -9 46 16 43 45 -3 26 -35 41
-51 25z"/>
<path d="M12688 5687 c-15 -22 -15 -24 3 -35 10 -7 30 -12 44 -12 24 0 26 3
23 33 -2 26 -8 32 -28 34 -17 2 -31 -5 -42 -20z"/>
<path d="M11940 5631 c0 -50 8 -60 36 -47 19 9 24 17 22 41 -2 24 -8 31 -30
33 -25 3 -28 0 -28 -27z"/>
<path d="M12567 5602 c-23 -24 -27 -37 -27 -83 0 -48 4 -59 29 -83 27 -26 35
-28 86 -24 75 6 97 28 103 103 4 51 2 59 -24 86 -24 25 -35 29 -84 29 -49 0
-60 -4 -83 -28z"/>
<path d="M12030 5585 c0 -32 2 -35 30 -35 28 0 30 3 30 35 0 32 -2 35 -30 35
-28 0 -30 -3 -30 -35z"/>
<path d="M12127 5584 c-14 -14 -7 -49 13 -62 29 -18 62 4 58 38 -2 20 -9 26
-33 28 -17 2 -34 0 -38 -4z"/>
<path d="M12225 5558 c-5 -15 -2 -39 8 -54 3 -6 3 -14 0 -18 -4 -3 -7 -15 -8
-26 -1 -16 5 -20 32 -20 l33 0 0 65 0 65 -30 0 c-17 0 -33 -6 -35 -12z"/>
<path d="M12332 5503 c3 -41 6 -48 25 -51 17 -3 26 4 34 25 14 39 -2 73 -36
73 -25 0 -26 -2 -23 -47z"/>
<path d="M12143 5465 c-7 -8 -13 -26 -13 -40 0 -24 3 -26 33 -23 25 2 33 8 35
26 6 42 -30 66 -55 37z"/>
<path d="M12034 5416 c-8 -35 2 -46 42 -46 29 0 34 3 34 23 0 49 -64 68 -76
23z"/>
<path d="M12703 5388 c-19 -27 -2 -58 32 -58 29 0 39 14 31 46 -7 26 -46 34
-63 12z"/>
<path d="M11944 5365 c-10 -24 4 -45 29 -45 28 0 47 17 47 42 0 14 -8 18 -35
18 -22 0 -38 -6 -41 -15z"/>
<path d="M12750 5275 c0 -31 3 -35 25 -35 22 0 25 4 25 35 0 31 -3 35 -25 35
-22 0 -25 -4 -25 -35z"/>
<path d="M11792 5258 c-6 -6 -12 -22 -12 -35 0 -20 5 -23 36 -23 34 0 35 1 32
33 -3 35 -33 48 -56 25z"/>
<path d="M11736 5175 c-3 -9 -6 -28 -6 -41 0 -22 4 -25 28 -22 24 3 27 7 27
38 0 28 -4 36 -21 38 -13 2 -24 -4 -28 -13z"/>
<path d="M12775 5180 c3 -5 10 -10 16 -10 5 0 9 5 9 10 0 6 -7 10 -16 10 -8 0
-12 -4 -9 -10z"/>
<path d="M12330 5131 c0 -35 12 -51 36 -51 21 0 24 5 24 35 0 32 -2 35 -30 35
-23 0 -30 -5 -30 -19z"/>
<path d="M11694 5065 c-9 -23 3 -45 25 -45 32 0 51 11 51 30 0 30 -66 43 -76
15z"/>
<path d="M12254 5066 c-12 -30 4 -47 38 -44 28 2 33 7 33 28 0 21 -5 26 -33
28 -22 2 -34 -2 -38 -12z"/>
<path d="M12170 4997 c0 -29 18 -47 46 -47 24 0 37 23 29 51 -5 14 -16 19 -41
19 -29 0 -34 -3 -34 -23z"/>
<path d="M11722 4978 c-16 -16 -15 -48 2 -48 7 0 19 -7 27 -16 12 -14 14 -14
21 5 4 12 14 21 23 21 14 0 14 3 -2 25 -19 26 -52 32 -71 13z"/>
<path d="M11802 4918 c-7 -7 -12 -22 -12 -35 0 -20 5 -23 35 -23 33 0 35 2 35
35 0 30 -3 35 -23 35 -13 0 -28 -5 -35 -12z"/>
<path d="M11900 4881 c0 -28 3 -31 31 -31 27 0 30 3 27 28 -2 21 -9 28 -30 30
-25 3 -28 0 -28 -27z"/>
<path d="M8962 3743 c3 -35 6 -38 33 -38 27 0 30 3 33 38 3 37 3 37 -33 37
-36 0 -36 0 -33 -37z"/>
<path d="M9096 3764 c-12 -30 -6 -56 16 -74 24 -19 24 -19 53 37 8 14 -29 53
-49 53 -8 0 -17 -7 -20 -16z"/>
<path d="M8852 3688 c3 -30 6 -33 38 -33 32 0 35 2 35 30 0 28 -3 30 -38 33
-38 3 -38 3 -35 -30z"/>
<path d="M9194 3706 c-13 -33 0 -51 39 -54 38 -3 38 -3 35 30 -3 29 -7 33 -36
36 -22 2 -34 -2 -38 -12z"/>
<path d="M9304 3625 c-9 -36 2 -55 31 -55 29 0 40 19 31 55 -5 18 -13 25 -31
25 -18 0 -26 -7 -31 -25z"/>
<path d="M8794 3606 c-3 -8 -4 -25 -2 -38 2 -19 9 -23 37 -23 33 0 35 2 35 35
0 32 -3 35 -32 38 -21 2 -34 -2 -38 -12z"/>
<path d="M9390 3520 c0 -34 17 -45 55 -36 18 5 25 13 25 30 0 25 -17 36 -56
36 -20 0 -24 -5 -24 -30z"/>
<path d="M8823 3495 c-17 -7 -23 -18 -23 -42 0 -38 11 -47 50 -38 26 6 30 11
30 41 0 23 -5 34 -14 34 -8 0 -16 3 -18 8 -1 4 -13 3 -25 -3z"/>
<path d="M9477 3454 c-4 -4 -7 -22 -7 -41 0 -29 3 -33 26 -33 34 0 51 19 44
50 -6 25 -47 40 -63 24z"/>
<path d="M8850 3365 c-23 -28 -8 -50 35 -50 30 0 41 4 43 18 5 25 -16 47 -43
47 -12 0 -28 -7 -35 -15z"/>
<path d="M9674 3350 c-1 -24 4 -32 22 -36 38 -10 56 2 52 33 -3 24 -8 28 -38
31 -33 3 -35 1 -36 -28z"/>
<path d="M9542 3348 c-7 -7 -12 -25 -12 -40 0 -26 3 -28 40 -28 36 0 40 3 40
24 0 13 -3 31 -6 40 -7 19 -45 21 -62 4z"/>
<path d="M8927 3273 c-4 -3 -7 -21 -7 -40 0 -30 3 -33 30 -33 18 0 33 7 39 18
5 9 11 20 13 23 12 22 -56 52 -75 32z"/>
<path d="M9693 3263 c-7 -2 -13 -20 -13 -39 0 -31 2 -34 30 -34 34 0 45 17 36
55 -6 24 -24 30 -53 18z"/>
<path d="M9591 3226 c-9 -10 -9 -20 0 -40 21 -45 69 -27 69 26 0 24 -4 28 -29
28 -16 0 -34 -6 -40 -14z"/>
<path d="M9010 3175 c0 -8 -4 -15 -9 -15 -10 0 -9 -19 2 -37 14 -22 60 -14 80
12 15 22 16 25 2 25 -8 0 -15 7 -15 15 0 10 -10 15 -30 15 -20 0 -30 -5 -30
-15z"/>
<path d="M10063 3153 c-16 -6 -17 -55 -1 -71 7 -7 20 -12 29 -12 11 0 19 -9
21 -22 2 -19 10 -24 41 -26 35 -3 37 -2 37 25 0 33 -16 53 -42 53 -11 0 -18 7
-18 18 0 33 -31 50 -67 35z"/>
<path d="M9650 3114 c-15 -27 -8 -49 23 -68 13 -8 20 -8 25 0 4 7 16 13 27 15
15 3 21 13 23 42 l3 37 -44 0 c-37 0 -46 -4 -57 -26z"/>
<path d="M9107 3104 c-4 -4 -7 -22 -7 -41 0 -30 3 -33 29 -33 34 0 54 20 49
52 -2 17 -10 24 -33 26 -17 2 -34 0 -38 -4z"/>
<path d="M9202 2993 c3 -35 6 -38 35 -41 28 -3 33 1 39 22 10 41 -1 56 -41 56
-36 0 -36 -1 -33 -37z"/>
<path d="M9694 3006 c-3 -8 -4 -25 -2 -38 2 -19 10 -24 41 -26 35 -3 37 -2 37
25 0 16 -5 34 -12 41 -17 17 -57 15 -64 -2z"/>
<path d="M9312 2931 c2 -29 -1 -42 -14 -50 -28 -17 -23 -59 7 -67 43 -11 58 2
52 41 -5 28 -2 35 14 40 21 7 26 44 7 63 -7 7 -25 12 -41 12 -28 0 -29 -2 -25
-39z"/>
<path d="M9042 2878 c-6 -6 -12 -25 -12 -40 0 -26 3 -28 41 -28 l40 0 -3 38
c-3 31 -7 37 -28 40 -14 2 -31 -3 -38 -10z"/>
<path d="M9160 2875 c-15 -18 -6 -41 23 -59 25 -16 52 5 52 40 0 25 -4 29 -31
32 -19 2 -36 -3 -44 -13z"/>
<path d="M8928 2862 c-16 -9 -28 -22 -28 -29 0 -15 36 -53 50 -53 12 0 50 37
50 48 0 5 -10 18 -22 30 -22 20 -24 20 -50 4z"/>
<path d="M8794 2816 c-10 -40 1 -56 38 -56 32 0 33 2 32 37 -1 35 -4 38 -32
41 -26 3 -32 -1 -38 -22z"/>
<path d="M8680 2752 c0 -52 51 -72 72 -28 16 37 4 56 -37 56 -32 0 -35 -3 -35
-28z"/>
<path d="M8587 2713 c-4 -3 -7 -21 -7 -40 0 -32 1 -33 40 -33 37 0 40 2 40 28
0 15 -5 33 -12 40 -13 13 -50 16 -61 5z"/>
<path d="M8504 2585 c-8 -33 8 -51 43 -50 25 2 28 6 31 38 3 36 2 37 -32 37
-30 0 -37 -4 -42 -25z"/>
<path d="M8512 2488 c-25 -25 -8 -89 23 -88 5 0 18 12 28 25 17 24 17 26 0 50
-20 27 -33 31 -51 13z"/>
<path d="M8573 2383 c-23 -9 -15 -59 12 -77 23 -15 27 -15 40 -2 20 20 19 72
-1 80 -18 7 -33 7 -51 -1z"/>
<path d="M9040 2325 c-17 -32 0 -55 41 -55 27 0 29 3 29 40 0 37 -2 40 -28 40
-20 0 -33 -7 -42 -25z"/>
<path d="M8674 2306 c-9 -36 1 -56 28 -56 36 0 50 14 46 46 -2 24 -8 29 -35
32 -28 3 -33 -1 -39 -22z"/>
<path d="M8924 2305 c-10 -40 1 -55 41 -55 34 0 36 2 33 28 -6 54 -62 75 -74
27z"/>
<path d="M8800 2271 c0 -38 2 -41 29 -41 34 0 54 20 49 52 -2 19 -10 24 -40
26 l-38 3 0 -40z"/>
<path d="M9242 1978 c-17 -17 -15 -39 6 -54 38 -29 79 -5 68 41 -5 19 -13 25
-34 25 -15 0 -33 -5 -40 -12z"/>
<path d="M9225 1840 c-9 -40 0 -50 41 -50 33 0 34 1 34 40 0 39 -1 40 -34 40
-30 0 -35 -4 -41 -30z"/>
<path d="M9247 1732 c-22 -24 -21 -35 2 -56 26 -24 53 -17 65 16 17 49 -32 78
-67 40z"/>
<path d="M1030 495 c0 -8 9 -15 20 -15 11 0 20 7 20 15 0 8 -9 15 -20 15 -11
0 -20 -7 -20 -15z"/>
<path d="M779 314 c-12 -14 -11 -16 5 -13 11 2 21 10 24 17 5 17 -13 15 -29
-4z"/>
<path d="M750 271 c0 -12 5 -21 10 -21 6 0 10 -7 10 -15 0 -8 7 -15 15 -15 8
0 15 7 15 15 0 8 -5 15 -10 15 -6 0 -10 8 -8 17 2 10 -4 19 -14 21 -13 2 -18
-3 -18 -17z"/>
<path d="M810 240 c0 -13 7 -20 20 -20 13 0 20 7 20 20 0 13 -7 20 -20 20 -13
0 -20 -7 -20 -20z"/>
<path d="M985 230 c-3 -5 1 -10 10 -10 9 0 13 5 10 10 -3 6 -8 10 -10 10 -2 0
-7 -4 -10 -10z"/>
</g>
</svg>
