<?xml version="1.0" standalone="no"?>
<!DOCTYPE svg PUBLIC "-//W3C//DTD SVG 20010904//EN"
 "http://www.w3.org/TR/2001/REC-SVG-20010904/DTD/svg10.dtd">
<svg version="1.0" xmlns="http://www.w3.org/2000/svg"
 width="940.000000pt" height="1280.000000pt" viewBox="0 0 940.000000 1280.000000"
 preserveAspectRatio="xMidYMid meet">
<metadata>
Created by potrace 1.15, written by Peter Selinger 2001-2017
</metadata>
<g transform="translate(0.000000,1280.000000) scale(0.100000,-0.100000)"
fill="#000000" stroke="none">
<path d="M1963 12291 c-73 -12 -188 -48 -248 -78 -173 -87 -354 -287 -343
-378 3 -26 4 -26 35 19 83 118 285 176 560 162 253 -13 469 -65 653 -158 106
-53 540 -318 540 -329 0 -11 -170 -89 -271 -124 -173 -60 -244 -70 -519 -70
-224 0 -252 2 -328 23 -147 40 -244 102 -289 185 l-18 32 -3 -33 c-7 -74 96
-228 217 -325 141 -112 306 -172 501 -184 289 -16 658 75 1003 249 l79 39 111
-44 c184 -74 371 -114 585 -126 l112 -6 -150 -123 -150 -122 -114 -30 c-402
-103 -820 -160 -1185 -160 -503 0 -855 103 -1090 317 -84 76 -172 205 -213
310 l-29 76 37 30 c58 48 78 118 54 183 l-11 28 -19 -32 c-24 -39 -46 -41 -54
-7 -9 34 -49 53 -72 34 -12 -9 -15 -24 -11 -51 5 -36 4 -37 -31 -40 -76 -7
-60 -69 30 -118 43 -22 49 -30 77 -106 163 -429 623 -654 1335 -654 321 0 692
47 1068 134 75 18 135 29 132 24 -7 -12 -118 -66 -244 -121 -237 -103 -511
-181 -744 -212 -101 -14 -170 -16 -315 -12 -270 8 -418 46 -655 166 -233 118
-420 254 -666 483 -242 226 -391 339 -547 414 -96 47 -227 79 -284 70 -51 -8
-82 -24 -61 -33 7 -3 59 -36 115 -73 207 -137 387 -311 529 -508 288 -403 597
-618 1008 -702 136 -28 327 -43 450 -35 145 9 360 40 472 69 197 51 648 259
962 444 18 10 -30 -61 -76 -114 -183 -211 -467 -367 -877 -484 -192 -55 -248
-62 -491 -63 -318 0 -550 39 -772 132 -143 60 -230 82 -349 88 -166 9 -319
-28 -435 -106 l-48 -33 -41 21 c-66 33 -130 24 -187 -27 -25 -22 -22 -32 10
-32 15 0 34 -5 42 -10 12 -8 11 -13 -8 -33 -24 -26 -28 -57 -10 -75 18 -18 33
-15 67 14 28 24 31 24 31 6 0 -25 34 -55 57 -50 26 5 44 50 46 119 l2 61 61
37 c117 71 279 108 419 97 108 -9 189 -30 330 -87 261 -104 439 -134 803 -134
285 0 299 -4 158 -46 -252 -75 -428 -99 -811 -109 -176 -4 -349 -13 -385 -20
-160 -28 -340 -86 -436 -140 -45 -25 -60 -29 -97 -24 -53 8 -90 -9 -136 -61
-35 -40 -43 -82 -13 -70 9 4 27 10 39 12 22 5 23 3 17 -39 -5 -33 -2 -47 9
-57 30 -25 49 -12 84 57 1 2 11 -6 22 -17 12 -12 29 -21 39 -21 47 0 55 60 18
133 -27 55 -29 53 76 101 217 99 373 125 798 136 416 10 519 27 960 156 427
125 585 190 790 324 130 85 292 249 343 347 40 77 68 104 279 274 l117 95 133
12 c167 16 387 62 478 101 145 61 333 209 430 341 59 79 109 106 226 123 l71
11 109 -58 c319 -168 604 -415 834 -721 192 -256 330 -510 470 -864 l21 -54
-63 59 c-80 75 -162 118 -285 152 -88 23 -117 26 -273 27 l-175 1 -82 42 c-46
23 -88 42 -95 42 -7 0 -33 36 -56 79 -93 167 -142 211 -240 215 -52 2 -65 8
-116 46 l-58 44 49 11 c99 23 129 54 177 188 10 26 27 54 39 62 23 16 23 16
-13 33 -14 7 -44 28 -68 47 -82 66 -195 80 -270 35 l-32 -20 -10 26 c-6 14
-10 30 -10 36 0 5 -29 40 -64 77 -36 36 -70 79 -76 95 l-11 29 -27 -31 c-15
-17 -59 -57 -98 -90 -91 -77 -118 -133 -112 -234 3 -55 1 -67 -10 -63 -71 27
-105 1 -116 -89 -10 -77 -30 -131 -62 -169 -21 -25 -25 -38 -21 -70 6 -40 37
-82 69 -93 16 -5 15 -9 -13 -37 -75 -74 -97 -181 -58 -278 11 -29 23 -81 26
-116 3 -35 10 -63 14 -63 5 0 15 15 23 33 7 19 26 43 41 55 25 20 36 21 92 16
56 -6 68 -4 93 14 l28 21 6 -22 c8 -35 74 -105 120 -130 36 -19 56 -22 178
-22 86 0 138 4 138 10 -1 6 -7 19 -15 29 -18 24 -20 108 -4 139 19 35 14 121
-9 168 -12 24 -20 44 -19 45 2 2 23 -13 47 -32 83 -66 108 -74 242 -77 116 -3
189 -19 222 -48 5 -4 -14 -19 -41 -32 -65 -33 -136 -90 -263 -211 -300 -285
-614 -447 -870 -449 -157 -1 -253 37 -368 147 -78 75 -96 68 -64 -25 67 -196
232 -347 438 -399 95 -24 258 -27 369 -5 204 39 405 186 700 510 185 204 306
325 327 325 23 0 221 -155 331 -260 189 -180 352 -396 462 -612 46 -89 53
-108 40 -115 -8 -5 -26 -23 -39 -42 -24 -32 -25 -32 -35 -12 -15 27 -62 51
-102 51 -23 0 -44 -12 -79 -43 -37 -33 -67 -49 -123 -66 -41 -12 -82 -30 -91
-40 -18 -19 -22 -76 -6 -86 23 -14 6 -23 -52 -27 -70 -5 -127 -28 -166 -67
l-26 -27 -85 43 c-186 94 -402 110 -618 48 -29 -9 -53 -19 -53 -23 0 -4 35
-18 77 -31 42 -14 122 -47 178 -75 425 -214 736 -655 850 -1208 14 -70 34
-151 44 -180 42 -121 182 -367 243 -425 36 -35 105 -56 132 -41 9 5 23 23 32
41 30 58 118 158 192 218 184 149 376 226 742 300 171 34 225 57 289 120 42
42 101 133 101 155 0 7 -16 3 -41 -9 -34 -16 -72 -22 -196 -28 -263 -14 -387
-45 -583 -145 -146 -75 -258 -163 -369 -289 -24 -27 -41 -41 -37 -31 38 107
116 491 131 652 l7 70 127 62 c383 186 624 425 691 687 22 87 26 197 9 277
-11 49 -13 51 -21 28 -73 -196 -233 -363 -500 -522 -109 -65 -286 -154 -292
-147 -2 2 -7 29 -11 59 l-7 55 49 22 c80 36 94 37 167 7 17 -6 18 -4 12 17 -4
13 -11 69 -15 124 -11 146 -52 212 -161 259 -25 11 -46 21 -48 22 -2 1 4 14
14 28 15 24 15 33 4 86 -7 33 -11 62 -9 64 2 1 90 60 194 131 295 198 393 290
530 495 96 144 148 260 184 407 45 189 62 329 63 498 0 280 -58 489 -187 670
-49 69 -113 133 -100 100 39 -97 77 -226 91 -305 21 -125 15 -344 -15 -484
-54 -252 -179 -535 -350 -792 -123 -184 -199 -279 -357 -445 -68 -72 -124
-134 -124 -140 0 -10 -34 -12 -66 -3 -18 5 -24 20 -38 87 -41 208 5 333 159
430 137 88 235 350 235 629 0 150 -16 223 -75 343 -65 133 -157 240 -316 367
-367 294 -578 580 -579 787 l-1 46 -15 -29 c-99 -182 -87 -427 32 -645 85
-156 271 -362 446 -493 133 -101 180 -160 253 -325 68 -152 89 -245 82 -368
-8 -151 -50 -255 -142 -355 -63 -69 -74 -87 -95 -164 l-16 -59 -43 169 c-229
906 -666 1595 -1264 1994 -235 157 -546 291 -757 325 -25 4 -113 25 -195 45
-206 53 -356 72 -555 72 -341 1 -540 -51 -917 -236 l-171 -84 -38 26 c-22 15
-85 61 -141 104 -283 212 -621 370 -928 434 -131 27 -343 39 -432 25z m3407
-436 c36 -9 98 -25 139 -37 l73 -22 -98 -22 c-235 -52 -523 -192 -833 -403
-57 -39 -114 -71 -127 -71 -102 0 -693 195 -667 221 20 20 239 121 363 167
135 51 335 107 485 136 224 45 543 59 665 31z m188 -110 c-2 -3 -24 -15 -49
-28 -24 -13 -54 -39 -67 -58 -84 -126 -249 -267 -402 -342 -104 -52 -106 -52
-200 -52 -104 0 -230 13 -230 23 0 10 213 147 344 222 186 107 343 174 501
216 93 24 112 27 103 19z m1335 -1559 c91 -32 154 -75 226 -151 80 -86 130
-192 181 -380 44 -163 111 -477 104 -484 -5 -5 1 -15 -59 104 -65 128 -182
305 -283 425 -103 123 -283 296 -406 389 -53 41 -93 78 -89 82 22 20 106 38
178 38 59 1 98 -6 148 -23z m284 -1927 c48 -50 95 -101 103 -115 8 -13 18 -24
22 -24 3 0 4 33 2 73 -7 94 2 107 53 83 21 -9 54 -30 73 -46 l35 -29 -40 -32
c-68 -55 -168 -164 -204 -223 -80 -133 -121 -301 -121 -496 0 -194 36 -315
124 -422 47 -56 47 -57 35 -98 l-12 -41 -31 30 c-45 44 -123 178 -151 258 -36
102 -41 183 -19 294 34 180 19 485 -32 631 -11 33 -11 38 8 55 32 28 58 93 58
146 0 26 2 47 4 47 3 0 45 -41 93 -91z m288 -541 c-17 -115 -51 -278 -81 -389
-43 -161 -94 -319 -104 -319 -14 0 -36 49 -50 111 -8 36 -11 97 -8 165 7 135
36 220 119 344 49 73 125 170 133 170 2 0 -3 -37 -9 -82z"/>
<path d="M6547 7809 c-366 -35 -702 -189 -960 -438 -281 -272 -453 -616 -474
-948 -3 -57 -9 -103 -12 -103 -4 0 -15 6 -26 14 -11 7 -90 50 -175 95 -184 97
-216 124 -223 188 -10 91 -121 158 -178 107 -14 -12 -20 -9 -56 34 l-41 48 50
12 c61 14 107 48 149 108 32 48 77 74 126 74 l27 0 -36 38 c-20 20 -48 57 -63
82 -68 111 -124 145 -242 144 -45 0 -80 3 -77 8 11 18 -8 60 -45 101 -52 57
-56 77 -31 133 11 26 18 49 16 52 -3 2 -27 -9 -54 -27 -27 -17 -74 -40 -105
-50 -32 -11 -71 -28 -88 -38 -42 -25 -87 -99 -100 -165 l-11 -55 -29 14 c-60
30 -149 -20 -149 -84 0 -29 -26 -69 -92 -140 -26 -28 -48 -61 -48 -73 0 -12
13 -35 30 -52 17 -16 30 -31 30 -33 0 -1 -13 -8 -30 -15 -42 -17 -104 -88
-123 -141 -9 -25 -18 -93 -21 -161 l-5 -116 35 10 c25 7 51 6 86 -3 47 -11
113 -8 166 7 19 6 22 3 22 -25 0 -93 104 -187 228 -207 23 -4 45 -11 48 -15
10 -17 22 -9 28 21 3 17 20 51 36 76 66 95 73 150 29 236 -11 22 -19 41 -17
43 3 3 202 -56 252 -75 l29 -11 -35 -24 c-52 -35 -65 -75 -25 -75 13 0 50 -9
82 -20 62 -21 125 -26 153 -11 10 5 56 6 107 2 85 -7 99 -12 235 -78 80 -39
153 -77 162 -85 11 -8 23 -43 33 -93 43 -231 165 -490 338 -721 85 -113 141
-177 430 -485 114 -121 206 -224 204 -228 -173 -318 -165 -611 23 -894 38 -56
105 -142 149 -192 73 -83 84 -101 134 -222 30 -73 53 -133 51 -133 -2 0 -61
47 -131 103 -159 129 -317 246 -494 366 -316 214 -431 345 -459 526 -6 38 -13
71 -15 74 -11 11 -58 -119 -72 -197 -30 -166 14 -354 116 -498 142 -202 369
-346 832 -527 118 -47 247 -101 286 -120 62 -31 72 -41 86 -79 22 -56 123
-238 187 -335 27 -41 50 -77 50 -79 0 -1 -35 13 -77 31 -111 48 -235 82 -349
95 -190 22 -384 -15 -799 -150 -311 -102 -395 -125 -511 -141 -104 -14 -190
-1 -246 36 l-39 26 7 -38 c16 -88 46 -147 109 -210 52 -51 72 -64 129 -82 110
-34 242 -29 409 13 155 40 306 98 427 163 47 25 113 61 147 80 34 19 106 46
160 60 88 24 115 27 273 27 157 0 185 -3 270 -26 52 -14 128 -40 168 -58 65
-30 81 -43 154 -129 123 -144 247 -278 276 -297 19 -12 26 -13 32 -4 22 35 68
-166 106 -460 27 -207 10 -792 -27 -953 -8 -35 -8 -52 0 -60 19 -19 38 51 57
218 15 125 19 231 19 485 0 359 -8 444 -66 684 l-32 130 27 105 c57 228 173
400 316 469 72 35 130 45 360 61 220 16 331 51 424 132 52 46 107 149 131 244
14 56 34 185 29 185 -1 0 -16 -22 -33 -49 -43 -66 -126 -143 -192 -177 -52
-27 -63 -28 -244 -35 -296 -11 -442 -53 -602 -173 -141 -106 -224 -267 -258
-501 l-8 -50 -28 110 c-15 61 -53 173 -84 250 -94 231 -88 206 -82 347 11 228
74 463 185 684 79 157 152 267 303 454 422 523 594 840 645 1184 20 133 15
347 -11 471 -53 256 -176 478 -332 597 -101 78 -103 77 -55 -20 66 -133 85
-245 79 -452 -4 -114 -12 -196 -27 -265 -38 -179 -239 -760 -323 -939 -24 -50
-78 -145 -119 -211 -260 -414 -389 -840 -387 -1278 0 -84 4 -186 8 -227 4 -41
7 -77 5 -79 -1 -2 -25 41 -52 95 l-48 99 24 235 c32 317 37 820 9 1005 -48
317 -159 614 -324 870 l-45 69 17 55 c24 76 76 187 135 291 57 97 149 188 212
209 24 8 52 30 75 58 21 25 55 64 75 85 l37 39 -36 16 c-21 8 -49 12 -66 9
l-29 -6 20 33 c12 17 51 71 88 119 68 87 83 95 84 40 0 -33 25 -88 52 -115 13
-13 56 -36 96 -51 40 -16 80 -39 91 -52 19 -24 20 -24 26 -4 3 11 22 37 42 58
78 82 105 200 64 280 -20 40 -21 43 -4 49 63 22 86 37 129 82 26 28 63 56 82
62 l34 11 -30 32 c-16 17 -54 63 -85 102 -69 88 -126 117 -228 116 l-67 0 11
33 c16 52 -8 81 -80 95 -94 18 -149 39 -173 65 -45 48 -112 39 -159 -21 l-22
-27 -32 30 c-79 76 -162 96 -260 64 -54 -18 -104 -27 -179 -31 -19 -1 -5 -19
22 -30 17 -7 40 -24 51 -38 17 -22 19 -35 13 -96 -5 -62 -4 -74 14 -96 l20
-24 -37 -17 c-55 -24 -97 -64 -123 -117 -21 -42 -23 -61 -23 -179 0 -73 0
-133 0 -133 1 0 18 9 40 20 49 25 54 25 131 -1 70 -24 126 -21 185 9 l34 17
-3 -66 c-3 -63 -5 -66 -27 -62 -35 7 -65 -14 -86 -60 -24 -54 -24 -74 2 -122
32 -63 21 -110 -64 -281 -41 -82 -91 -190 -112 -241 l-37 -91 -81 101 c-44 56
-122 149 -172 207 -184 213 -287 362 -371 535 -84 175 -107 264 -108 420 0 96
4 141 16 173 14 39 14 42 -1 42 -37 -1 -99 -40 -149 -95 -163 -178 -219 -504
-126 -730 14 -33 28 -67 31 -75 3 -8 -18 17 -47 55 -29 39 -91 107 -137 153
l-84 83 11 112 c63 638 518 1199 1135 1398 108 36 169 75 197 130 43 83 -4 99
-225 78z m-997 -2001 c261 -290 405 -551 523 -950 19 -65 32 -118 29 -117 -12
1 -391 423 -414 459 -91 151 -190 401 -221 560 -26 131 -28 150 -18 150 5 0
51 -46 101 -102z m666 -699 c102 -109 216 -234 253 -280 l69 -82 -5 -96 c-5
-84 7 -314 23 -451 l6 -45 -45 77 c-73 125 -147 227 -228 312 -67 73 -77 87
-88 141 -36 167 -150 474 -247 667 -24 48 -44 90 -44 93 0 3 27 -27 61 -67 33
-40 144 -161 245 -269z m480 -597 c188 -318 281 -557 336 -858 20 -113 23
-161 23 -386 0 -184 -3 -260 -12 -269 -9 -9 -25 16 -67 105 -259 541 -373 987
-351 1372 4 68 10 124 14 124 3 0 29 -40 57 -88z m-291 -182 c105 -158 181
-312 200 -410 16 -80 74 -301 91 -345 4 -11 -15 4 -42 34 -27 30 -87 88 -134
128 -95 83 -159 155 -207 235 -31 51 -33 59 -43 213 -10 154 -25 298 -36 340
-8 34 104 -94 171 -195z m-217 35 c11 -66 22 -138 25 -160 l5 -40 -13 31 c-17
38 -42 167 -50 254 -8 100 10 52 33 -85z m377 -1032 c28 -17 86 -49 130 -72
141 -72 210 -151 371 -431 59 -100 143 -289 193 -432 23 -64 41 -120 41 -124
0 -4 -24 32 -53 82 -166 281 -330 477 -568 680 l-146 125 -47 124 c-25 69 -46
127 -46 131 0 3 17 -7 38 -23 20 -16 60 -43 87 -60z m230 -549 c80 -59 259
-240 326 -329 115 -151 230 -356 260 -459 10 -33 11 -35 -59 55 -68 88 -232
243 -314 299 -56 38 -78 62 -137 150 -62 94 -201 345 -201 365 0 9 35 -13 125
-81z m477 -758 c111 -130 142 -183 62 -106 -52 51 -194 215 -194 225 0 12 89
-69 132 -119z"/>
</g>
</svg>
